<?xml version="1.0" encoding="UTF-8"?>
<svg width="26px" height="26px" viewBox="0 0 26 26" version="1.1" xmlns="http://www.w3.org/2000/svg" xmlns:xlink="http://www.w3.org/1999/xlink">
    <!-- Generator: Sketch 54.1 (76490) - https://sketchapp.com -->
    <title>Group 9</title>
    <desc>Created with Sketch.</desc>
    <g id="Page-1" stroke="none" stroke-width="1" fill="none" fill-rule="evenodd">
        <g id="Group-9" transform="translate(0.845000, 0.405000)">
            <path d="M12.4524306,24.9048611 L12.4524306,24.9048611 C5.575,24.9048611 -6.39488462e-13,19.3298611 -6.39488462e-13,12.4524306 C-6.39488462e-13,5.575 5.575,2.84217094e-13 12.4524306,2.84217094e-13 C19.3298611,2.84217094e-13 24.9048611,5.575 24.9048611,12.4524306 C24.9048611,19.3298611 19.3298611,24.9048611 12.4524306,24.9048611" id="Fill-30" fill="#2B5A8F"></path>
            <path d="M10.5552083,19.9795139 L13.5864583,19.9795139 L13.5864583,12.3885417 L15.7010417,12.3885417 L15.9267361,9.846875 L13.5864583,9.846875 C13.5864583,9.846875 13.5864583,8.89791667 13.5864583,8.39930556 C13.5864583,7.80034722 13.7065972,7.56319444 14.2861111,7.56319444 C14.7524306,7.56319444 15.9267361,7.56319444 15.9267361,7.56319444 L15.9267361,4.92569444 C15.9267361,4.92569444 14.1972222,4.92569444 13.8277778,4.92569444 C11.5722222,4.92569444 10.5552083,5.91909722 10.5552083,7.82048611 C10.5552083,9.47673611 10.5552083,9.846875 10.5552083,9.846875 L8.978125,9.846875 L8.978125,12.4201389 L10.5552083,12.4201389 L10.5552083,19.9795139" id="Fill-31" fill="#FFFFFE"></path>
        </g>
    </g>
</svg>