<?xml version="1.0" encoding="UTF-8"?>
<svg width="26px" height="25px" viewBox="0 0 26 25" version="1.1" xmlns="http://www.w3.org/2000/svg" xmlns:xlink="http://www.w3.org/1999/xlink">
    <!-- Generator: Sketch 54.1 (76490) - https://sketchapp.com -->
    <title>Group 10</title>
    <desc>Created with Sketch.</desc>
    <g id="Page-1" stroke="none" stroke-width="1" fill="none" fill-rule="evenodd">
        <g id="Group-10" transform="translate(0.967000, -0.000000)">
            <path d="M12.4524306,24.9048611 L12.4524306,24.9048611 C5.575,24.9048611 -6.53699317e-13,19.3298611 -6.53699317e-13,12.4524306 C-6.53699317e-13,5.575 5.575,2.98427949e-13 12.4524306,2.98427949e-13 C19.3298611,2.98427949e-13 24.9048611,5.575 24.9048611,12.4524306 C24.9048611,19.3298611 19.3298611,24.9048611 12.4524306,24.9048611" id="Fill-38" fill="#DA3338"></path>
            <path d="M8.46770833,13.609375 C8.66180556,13.6892361 8.83645833,13.6128472 8.89305556,13.3972222 C8.93194444,13.2482639 9.02465278,12.871875 9.06631944,12.7152778 C9.12361111,12.5020833 9.10104167,12.4274306 8.94375,12.2420139 C8.60208333,11.8385417 8.38368056,11.315625 8.38368056,10.5756944 C8.38368056,8.42881944 9.98958333,6.50694444 12.5659722,6.50694444 C14.8472222,6.50694444 16.1006944,7.90104167 16.1006944,9.76284722 C16.1006944,12.2121528 15.0166667,14.2795139 13.4072917,14.2795139 C12.5184028,14.2795139 11.8534722,13.5444444 12.0663194,12.6434028 C12.3222222,11.5670139 12.8163194,10.4055556 12.8163194,9.62847222 C12.8163194,8.93333333 12.4430556,8.353125 11.6708333,8.353125 C10.7621528,8.353125 10.0322917,9.29305556 10.0322917,10.5520833 C10.0322917,11.3538194 10.3034722,11.8965278 10.3034722,11.8965278 C10.3034722,11.8965278 9.37361111,15.8357639 9.21076389,16.5253472 C8.88576389,17.8993056 9.16180556,19.5836806 9.18541667,19.7534722 C9.19930556,19.8548611 9.32847222,19.8784722 9.38715278,19.8027778 C9.47118056,19.6930556 10.553125,18.3569444 10.9204861,17.0222222 C11.025,16.6444444 11.51875,14.6875 11.51875,14.6875 C11.8135417,15.2506944 12.6763889,15.7458333 13.5934028,15.7458333 C16.3246528,15.7458333 18.1770833,13.2565972 18.1770833,9.92430556 C18.1770833,7.40416667 16.0434028,5.05763889 12.7993056,5.05763889 C8.76284722,5.05763889 6.72777778,7.95138889 6.72777778,10.3642361 C6.72777778,11.8256944 7.28125,13.1256944 8.46770833,13.609375" id="Fill-39" fill="#FFFFFE"></path>
        </g>
    </g>
</svg>