<?xml version="1.0" encoding="UTF-8"?>
<svg width="26px" height="25px" viewBox="0 0 26 25" version="1.1" xmlns="http://www.w3.org/2000/svg" xmlns:xlink="http://www.w3.org/1999/xlink">
    <!-- Generator: Sketch 54.1 (76490) - https://sketchapp.com -->
    <title>Group 5</title>
    <desc>Created with Sketch.</desc>
    <g id="Page-1" stroke="none" stroke-width="1" fill="none" fill-rule="evenodd">
        <g id="Group-5" transform="translate(0.967000, 0.000000)">
            <path d="M12.4524306,24.9048611 L12.4524306,24.9048611 C5.57534722,24.9048611 -5.25801624e-13,19.3298611 -5.25801624e-13,12.4524306 C-5.25801624e-13,5.575 5.57534722,2.84217094e-13 12.4524306,2.84217094e-13 C19.3298611,2.84217094e-13 24.9052083,5.575 24.9052083,12.4524306 C24.9052083,19.3298611 19.3298611,24.9048611 12.4524306,24.9048611" id="Fill-19" fill="#00A9D4"></path>
            <path d="M5.81770833,16.6211806 C7.02256944,17.39375 8.45347222,17.8444444 9.990625,17.8444444 C15.0454861,17.8444444 17.9006944,13.5753472 17.7288194,9.74583333 C18.2607639,9.3625 18.7222222,8.88298611 19.0871528,8.33680556 C18.5989583,8.553125 18.0739583,8.69965278 17.5239583,8.76527778 C18.0854167,8.42881944 18.5173611,7.89548611 18.7204861,7.25902778 C18.1944444,7.57118056 17.6118056,7.79791667 16.9920139,7.92013889 C16.4951389,7.39097222 15.7878472,7.06041667 15.0045139,7.06041667 C13.2475694,7.06041667 11.95625,8.70034722 12.3527778,10.403125 C10.0902778,10.2899306 8.08402778,9.20590278 6.74166667,7.55833333 C6.02847222,8.78263889 6.371875,10.3833333 7.584375,11.1934028 C7.13784722,11.1795139 6.71770833,11.0565972 6.35069444,10.8527778 C6.32152778,12.1142361 7.225,13.29375 8.534375,13.5569444 C8.15104167,13.6611111 7.73125,13.6847222 7.30555556,13.603125 C7.65104167,14.6850694 8.65659722,15.471875 9.84826389,15.49375 C8.70381944,16.3913194 7.26215278,16.7916667 5.81770833,16.6211806" id="Fill-20" fill="#FFFFFE"></path>
        </g>
    </g>
</svg>