<svg width="25" height="36" viewBox="0 0 25 36" fill="none" xmlns="http://www.w3.org/2000/svg">
<path d="M11.6644 22.9168C11.6383 22.9168 11.4297 22.5683 11.0386 21.8714C10.6476 21.1745 10.2174 20.4092 9.74809 19.5756C9.2788 18.742 8.8421 17.9768 8.43799 17.2798C8.03388 16.5829 7.83182 16.2208 7.83182 16.1934C7.44075 15.2915 7.167 14.4306 7.01057 13.6107C6.85414 12.7908 7.10181 12.1758 7.75361 11.7659L2.31767 2.17279C1.95267 2.4461 1.50945 3.04054 0.988018 3.95612C0.466582 4.8717 0.147208 6.16307 0.0298845 7.83025C-0.0874388 9.49743 0.140687 11.5677 0.714265 14.0411C1.28784 16.5146 2.5132 19.4458 4.39037 22.8348C6.34575 26.4151 8.24896 29.1345 10.1001 30.993C11.9512 32.8515 13.6393 34.1634 15.1645 34.9286C16.6897 35.6939 17.9802 36.0492 19.0361 35.9945C20.092 35.9399 20.8155 35.8032 21.2066 35.5846L15.888 26.1965C15.2622 26.5791 14.643 26.4766 14.0304 25.889C13.4177 25.3014 12.629 24.3107 11.6644 22.9168ZM24.8436 31.9359C24.8436 31.9359 24.6285 31.5533 24.1983 30.788C23.7681 30.0228 23.2923 29.1824 22.7709 28.2668C22.2494 27.3512 21.7736 26.5108 21.3435 25.7455C20.9133 24.9803 20.6982 24.5976 20.6982 24.5976C20.5417 24.3243 20.3071 24.1467 19.9942 24.0647C19.6814 23.9827 19.3816 24.0237 19.0948 24.1877L16.5919 25.7455L21.8714 35.1746C21.8714 35.1746 22.2951 34.9081 23.1424 34.3752C23.9897 33.8422 24.4134 33.5758 24.4134 33.5758C24.7002 33.4118 24.8827 33.1658 24.9609 32.8378C25.0391 32.5099 25 32.2092 24.8436 31.9359ZM10.9604 9.79806V9.75706C11.2472 9.59308 11.4297 9.3471 11.5079 9.01913C11.5861 8.69116 11.547 8.39053 11.3906 8.11722C11.3906 8.11722 11.169 7.72093 10.7258 6.92833C10.2826 6.13574 9.79372 5.27483 9.25925 4.34558C8.72477 3.41633 8.23594 2.55543 7.79272 1.76283C7.3495 0.970236 7.12789 0.573945 7.12789 0.573945C6.97146 0.300636 6.73682 0.122989 6.42395 0.0409971C6.11109 -0.0409968 5.81127 1.30323e-07 5.52448 0.163984L3.02161 1.72183L8.41844 11.3559C8.41844 11.3559 8.84209 11.0963 9.68943 10.577C10.5368 10.0577 10.9604 9.79806 10.9604 9.79806Z" fill="#28A745"/>
</svg>
