<svg width="14" height="15" viewBox="0 0 14 15" fill="none" xmlns="http://www.w3.org/2000/svg">
<path d="M2.28394 9.79806C3.20797 10.7091 4.34122 11.1732 5.66625 11.1732C6.99128 11.1732 8.12453 10.7091 9.066 9.79806C10.0075 8.86982 10.4608 7.76968 10.4608 6.44609C10.4608 5.12249 9.99004 4.02235 9.066 3.09411C8.12453 2.16588 7.00872 1.71895 5.66625 1.71895C4.32379 1.71895 3.20797 2.18307 2.2665 3.09411C1.32503 4.02235 0.871731 5.12249 0.871731 6.44609C0.871731 7.76968 1.34247 8.86982 2.28394 9.79806ZM1.65629 2.49248C2.7721 1.39234 4.09714 0.859467 5.66625 0.859467C7.23537 0.859467 8.5604 1.40953 9.67621 2.49248C10.792 3.57542 11.3325 4.89902 11.3325 6.44609C11.3325 7.7525 10.9141 8.92139 10.0772 9.96995L13.8082 13.6485C13.9303 13.7517 14 13.8892 14 14.0611C14 14.233 13.9477 14.3705 13.8257 14.4908C13.7036 14.6111 13.5641 14.6627 13.3898 14.6627C13.2154 14.6627 13.076 14.594 12.9714 14.4736L9.24035 10.7951C8.19427 11.6202 6.99128 12.0327 5.66625 12.0327C4.09714 12.0327 2.7721 11.4826 1.65629 10.3997C0.540473 9.31675 0 7.99315 0 6.44609C0 4.89902 0.557908 3.59261 1.65629 2.49248Z" fill="white"/>
</svg>
