<svg width="13" height="14" viewBox="0 0 13 14" fill="none" xmlns="http://www.w3.org/2000/svg">
<path fill-rule="evenodd" clip-rule="evenodd" d="M7.67064 0.293998L12.6953 6.01357C12.8735 6.19175 12.9626 6.39666 12.9626 6.62829C12.9626 6.85993 12.8735 7.06483 12.6953 7.24301L7.67064 12.9626C7.243 13.3902 6.8332 13.3902 6.4412 12.9626C6.26302 12.7844 6.17393 12.5795 6.17393 12.3479C6.17393 12.1162 6.26302 11.9113 6.4412 11.7331L10.9848 6.65502L6.4412 1.52344C6.01356 1.0958 6.00465 0.685996 6.41447 0.293998C6.82429 -0.0979995 7.243 -0.0979995 7.67064 0.293998ZM0.293998 12.9893C-0.0979994 12.5795 -0.0979994 12.1608 0.293998 11.7331L4.83758 6.65502L0.293998 1.52344C-0.0979994 1.09581 -0.0979994 0.686001 0.293998 0.294003C0.472179 0.115821 0.677084 0.0267334 0.908719 0.0267334C1.14035 0.0267334 1.34526 0.115821 1.52344 0.294003L6.60156 6.01358C6.74411 6.19176 6.81538 6.40557 6.81538 6.65502C6.81538 6.86884 6.74411 7.06483 6.60156 7.24302L1.52344 12.9626C1.09581 13.3902 0.685996 13.3991 0.293998 12.9893Z" fill="#6C6C6C"/>
</svg>
