<svg width="13" height="14" viewBox="0 0 13 14" fill="none" xmlns="http://www.w3.org/2000/svg">
<path fill-rule="evenodd" clip-rule="evenodd" d="M7.67062 0.294022L12.6953 6.01357C12.8735 6.19179 12.9626 6.39668 12.9626 6.62831C12.9626 6.85994 12.8735 7.06483 12.6953 7.24306L7.67062 12.9626C7.243 13.3902 6.83318 13.3902 6.44118 12.9626C6.26299 12.7844 6.17391 12.5795 6.17391 12.3479C6.17391 12.1162 6.26299 11.9113 6.44118 11.7332L10.9848 6.65504L6.44118 1.52345C6.01354 1.09584 6.00466 0.685989 6.41445 0.294022C6.82427 -0.0980072 7.243 -0.0980072 7.67062 0.294022ZM0.293999 12.9893C-0.0979996 12.5795 -0.0979996 12.1608 0.293999 11.7332L4.83758 6.65504L0.293999 1.52345C-0.0979996 1.09584 -0.0979996 0.685989 0.293999 0.294022C0.47216 0.11586 0.677086 0.0267487 0.908714 0.0267487C1.14034 0.0267487 1.34524 0.11586 1.52343 0.294022L6.60155 6.01357C6.7441 6.19179 6.81536 6.40559 6.81536 6.65504C6.81536 6.86885 6.7441 7.06483 6.60155 7.24306L1.52343 12.9626C1.09579 13.3902 0.685997 13.3991 0.293999 12.9893Z" fill="#72BF44"/>
</svg>
