<svg width="20" height="23" viewBox="0 0 20 23" fill="none" xmlns="http://www.w3.org/2000/svg">
<path fill-rule="evenodd" clip-rule="evenodd" d="M18.4615 22.3077H1.53846C1.12179 22.3077 0.761219 22.1555 0.456731 21.851C0.152242 21.5465 0 21.1859 0 20.7692V3.84615C0 3.41346 0.152242 3.04888 0.456731 2.7524C0.761219 2.45593 1.12179 2.30769 1.53846 2.30769H3.07692V3.07692C3.07692 3.71795 3.30128 4.26282 3.75 4.71154C4.19872 5.16026 4.74359 5.38462 5.38462 5.38462C6.02564 5.38462 6.57051 5.16026 7.01923 4.71154C7.46795 4.26282 7.69231 3.71795 7.69231 3.07692V2.30769H12.3077V3.07692C12.3077 3.71795 12.532 4.26282 12.9808 4.71154C13.4295 5.16026 13.9744 5.38462 14.6154 5.38462C15.2564 5.38462 15.8013 5.16026 16.25 4.71154C16.6987 4.26282 16.9231 3.71795 16.9231 3.07692V2.30769H18.4615C18.8782 2.30769 19.2388 2.45593 19.5433 2.7524C19.8478 3.04888 20 3.41346 20 3.84615V20.7692C20 21.1859 19.8478 21.5465 19.5433 21.851C19.2388 22.1555 18.8782 22.3077 18.4615 22.3077ZM18.4615 7.69231H1.53846V20.7692H18.4615V7.69231ZM5.38462 11.5385H3.07692V9.23077H5.38462V11.5385ZM5.38462 15.3846H3.07692V13.0769H5.38462V15.3846ZM5.38462 19.2308H3.07692V16.9231H5.38462V19.2308ZM9.23077 11.5385H6.92308V9.23077H9.23077V11.5385ZM9.23077 15.3846H6.92308V13.0769H9.23077V15.3846ZM9.23077 19.2308H6.92308V16.9231H9.23077V19.2308ZM13.0769 11.5385H10.7692V9.23077H13.0769V11.5385ZM13.0769 15.3846H10.7692V13.0769H13.0769V15.3846ZM13.0769 19.2308H10.7692V16.9231H13.0769V19.2308ZM16.9231 11.5385H14.6154V9.23077H16.9231V11.5385ZM16.9231 15.3846H14.6154V13.0769H16.9231V15.3846ZM16.9231 19.2308H14.6154V16.9231H16.9231V19.2308ZM14.5913 4.61538C14.1747 4.61538 13.8181 4.46715 13.5216 4.17067C13.2252 3.8742 13.0769 3.51763 13.0769 3.10096V1.51442C13.0769 1.09775 13.2252 0.741188 13.5216 0.444711C13.8181 0.148237 14.1747 0 14.5913 0C15.008 0 15.3646 0.148237 15.6611 0.444711C15.9575 0.741188 16.1058 1.09775 16.1058 1.51442V3.10096C16.1058 3.51763 15.9575 3.8742 15.6611 4.17067C15.3646 4.46715 15.008 4.61538 14.5913 4.61538ZM5.36058 4.61538C4.94391 4.61538 4.58734 4.46715 4.29086 4.17067C3.99439 3.8742 3.84615 3.51763 3.84615 3.10096V1.51442C3.84615 1.09775 3.99439 0.741188 4.29086 0.444711C4.58734 0.148237 4.94391 0 5.36058 0C5.77725 0 6.13381 0.148237 6.43029 0.444711C6.72676 0.741188 6.875 1.09775 6.875 1.51442V3.10096C6.875 3.51763 6.72676 3.8742 6.43029 4.17067C6.13381 4.46715 5.77725 4.61538 5.36058 4.61538Z" fill="#00B0AE"/>
</svg>
