<svg width="22" height="30" viewBox="0 0 22 30" fill="none" xmlns="http://www.w3.org/2000/svg">
<path d="M10.8651 0C4.87419 0 0.000244141 4.87394 0.000244141 10.8648C0.000244141 18.2996 9.72323 29.2144 10.1372 29.6754C10.526 30.1085 11.2049 30.1078 11.593 29.6754C12.007 29.2144 21.73 18.2996 21.73 10.8648C21.7299 4.87394 16.856 0 10.8651 0ZM10.8651 27.5232C7.59282 23.6362 1.95681 15.9675 1.95681 10.8649C1.95681 5.95277 5.95302 1.95656 10.8651 1.95656C15.7772 1.95656 19.7734 5.95277 19.7734 10.8649C19.7734 15.9677 14.1382 23.635 10.8651 27.5232Z" fill="white"/>
<path d="M10.865 5.39844C7.85083 5.39844 5.39868 7.85064 5.39868 10.8648C5.39868 13.879 7.85089 16.3312 10.865 16.3312C13.8791 16.3312 16.3313 13.879 16.3313 10.8648C16.3313 7.85064 13.8791 5.39844 10.865 5.39844ZM10.865 14.3746C8.92965 14.3746 7.35524 12.8002 7.35524 10.8648C7.35524 8.92947 8.92971 7.355 10.865 7.355C12.8003 7.355 14.3748 8.92947 14.3748 10.8648C14.3748 12.8002 12.8003 14.3746 10.865 14.3746Z" fill="white"/>
</svg>
