<svg width="68" height="68" viewBox="0 0 68 68" fill="none" xmlns="http://www.w3.org/2000/svg">
<g opacity="0.3">
<path d="M49.9512 0H10.1074C6.81181 0 4.13086 2.68095 4.13086 5.97656V54.0548C4.13086 56.6487 5.80137 58.8393 8.11523 59.6644V19.5795C8.11523 16.92 9.15223 14.4181 11.0335 12.5368L16.6677 6.90266C18.549 5.02138 21.0509 3.98438 23.7103 3.98438H55.5608C54.7356 1.67052 52.545 0 49.9512 0Z" fill="black"/>
<path d="M57.9209 7.99512C40.3193 7.99512 45.4418 7.99512 28.0381 7.99512V21.9139C28.0381 23.0149 27.1469 23.9326 26.0459 23.9326H12.1006V62.0234C12.1006 65.3198 14.7807 67.9999 18.0771 67.9999H57.9209C61.216 67.9999 63.8709 65.3198 63.8709 62.0234V13.9451C63.8709 10.65 61.216 7.99512 57.9209 7.99512ZM53.9365 56.0468H22.0615C20.9605 56.0468 20.0693 55.1556 20.0693 54.0546C20.0693 52.9536 20.9605 52.0624 22.0615 52.0624H53.9365C55.0375 52.0624 55.9287 52.9536 55.9287 54.0546C55.9287 55.1556 55.0375 56.0468 53.9365 56.0468ZM53.9365 48.0781H22.0615C20.9605 48.0781 20.0693 47.1869 20.0693 46.0859C20.0693 44.9849 20.9605 44.0937 22.0615 44.0937H53.9365C55.0375 44.0937 55.9287 44.9849 55.9287 46.0859C55.9287 47.1869 55.0375 48.0781 53.9365 48.0781ZM53.9365 40.1093H22.0615C20.9605 40.1093 20.0693 39.2181 20.0693 38.1171C20.0693 37.0161 20.9605 36.1249 22.0615 36.1249H53.9365C55.0375 36.1249 55.9287 37.0161 55.9287 38.1171C55.9287 39.2181 55.0375 40.1093 53.9365 40.1093ZM53.9365 32.1406H22.0615C20.9605 32.1406 20.0693 31.2494 20.0693 30.1484C20.0693 29.0474 20.9605 28.1562 22.0615 28.1562H53.9365C55.0375 28.1562 55.9287 29.0474 55.9287 30.1484C55.9287 31.2494 55.0375 32.1406 53.9365 32.1406Z" fill="black"/>
<path d="M23.7104 7.96875C22.115 7.96875 20.6132 8.59137 19.4848 9.71975L13.8506 15.3539C12.5224 16.682 12.0996 18.1672 12.0996 19.9219H24.0527V7.96875H23.7104Z" fill="black"/>
</g>
</svg>
