<svg width="20" height="21" viewBox="0 0 20 21" fill="none" xmlns="http://www.w3.org/2000/svg">
<path fill-rule="evenodd" clip-rule="evenodd" d="M8.25762 11.1508C7.69855 10.1824 7.24674 9.23945 6.90218 8.32187C6.55762 7.40429 6.60132 6.81552 7.03329 6.55554C7.66827 6.18894 8.16133 5.80108 8.51249 5.39197C8.86365 4.98286 8.74864 4.11003 8.16746 2.77345C7.57376 1.43352 6.905 0.912149 6.16114 1.20933C5.41728 1.50651 4.73749 1.82755 4.12173 2.17247C3.77249 2.37411 3.51317 2.79105 3.34376 3.4233C3.17435 4.05555 3.13605 4.83699 3.22886 5.76762C3.32168 6.69826 3.56254 7.75242 3.95146 8.93013C4.34038 10.1078 4.9106 11.3475 5.66215 12.6493C6.41369 13.951 7.20303 15.0615 8.03017 15.9809C8.85732 16.9003 9.65065 17.6329 10.4102 18.1786C11.1697 18.7243 11.8625 19.081 12.4885 19.2487C13.1145 19.4164 13.6084 19.4012 13.9701 19.2029C14.5734 18.8546 15.1896 18.4327 15.8189 17.9371C16.4482 17.4415 16.3311 16.6016 15.4675 15.4175C14.6006 14.2459 13.9022 13.7099 13.3723 13.8094C12.8424 13.909 12.2617 14.1358 11.6301 14.4899C11.1856 14.7465 10.6521 14.4962 10.0298 13.739C9.40742 12.9819 8.8167 12.1191 8.25762 11.1508Z" fill="#00B2BD"/>
</svg>
