<?xml version="1.0" encoding="UTF-8"?>
<svg width="66px" height="63px" viewBox="0 0 66 63" version="1.1" xmlns="http://www.w3.org/2000/svg" xmlns:xlink="http://www.w3.org/1999/xlink">
    <!-- Generator: Sketch 54.1 (76490) - https://sketchapp.com -->
    <title>Group 15</title>
    <desc>Created with Sketch.</desc>
    <defs>
        <polygon id="path-1" points="0.0372386377 0.00119727891 62.9280816 0.00119727891 62.9280816 62.8571094 0.0372386377 62.8571094"></polygon>
        <polygon id="path-3" points="0 0.092355102 23.9682307 0.092355102 23.9682307 3.14965122 0 3.14965122"></polygon>
    </defs>
    <g id="Page-1" stroke="none" stroke-width="1" fill="none" fill-rule="evenodd">
        <g id="Group-15" transform="translate(0.000000, 0.000000)">
            <g id="Group-3" transform="translate(2.993197, 0.148463)">
                <mask id="mask-2" fill="white">
                    <use xlink:href="#path-1"></use>
                </mask>
                <g id="Clip-2"></g>
                <path d="M37.7376027,2.78567891 C37.1519837,3.17778776 36.5849224,3.4386449 36.1700653,3.85230476 C25.4186503,14.5775293 14.6826503,25.318468 3.94500408,36.0576109 C2.76074558,37.242019 2.7565551,38.0771211 3.92719456,39.2480599 C10.5035483,45.8259102 17.0809497,52.4028626 23.6593986,58.978917 C24.7888816,60.1081007 25.6624463,60.1082503 26.8024054,58.9687401 C37.5598068,48.214332 48.3158612,37.4584272 59.0696707,26.7002776 C60.1689224,25.6005769 60.1675755,24.6984272 59.0813442,23.6084544 C57.4618748,21.983298 55.8370177,20.3639782 54.2148544,18.7416653 C49.2250449,13.7514068 44.2404735,8.7559102 39.235249,3.78106667 C38.8518204,3.40018231 38.3215755,3.1671619 37.7376027,2.78567891 M37.6898612,0.00215510204 C39.1586231,-0.0265795918 40.334351,0.582985034 41.3487456,1.60112109 C44.4470041,4.71060408 47.5599293,7.80586939 50.6638748,10.909815 C54.1382286,14.3841687 57.6094395,17.8615156 61.0810993,21.3385633 C63.5355211,23.7968762 63.5445007,26.4906041 61.103698,28.9314068 C50.3991265,39.6373252 39.6938068,50.3427946 28.9877388,61.0472163 C26.5749224,63.4595837 23.8650313,63.460332 21.4537116,61.0499102 C14.8921741,54.490019 8.33153469,47.9295293 1.7717932,41.3681415 C-0.547785034,39.0479646 -0.54105034,36.2642912 1.79274558,33.9301959 C12.5324871,23.1886585 23.276419,12.4514612 34.0100245,1.70378776 C35.040283,0.672182313 36.2004463,-0.00877006803 37.6898612,0.00215510204" id="Fill-1" fill="#FEFEFE" mask="url(#mask-2)"></path>
            </g>
            <path d="M14.2738844,6.14115782 C10.1871224,6.14115782 6.1005102,6.14250476 2.0137483,6.13831429 C1.74196599,6.13801497 1.46165306,6.13292653 1.19989796,6.06977007 C0.466714286,5.89257279 -0.0265646259,5.24319864 0.00980272109,4.55132109 C0.0476666667,3.83280408 0.564891156,3.26364762 1.32261905,3.14287211 C1.61565306,3.09602857 1.91781633,3.09393333 2.21593878,3.09378367 C10.2396531,3.09138912 18.263517,3.0910898 26.287381,3.09453197 C26.609898,3.09468163 26.938551,3.10036871 27.2534354,3.16038231 C27.9779388,3.29866803 28.3793265,3.7648585 28.4493673,4.49340272 C28.5191088,5.21820544 28.1250544,5.81549796 27.414619,6.02562041 C27.1112585,6.11526667 26.7787143,6.13591973 26.4591905,6.13651837 C22.3974218,6.14355238 18.3358027,6.14100816 14.2738844,6.14115782" id="Fill-4" fill="#FEFEFE"></path>
            <g id="Group-8" transform="translate(0.000000, 8.978395)">
                <mask id="mask-4" fill="white">
                    <use xlink:href="#path-3"></use>
                </mask>
                <g id="Clip-7"></g>
                <path d="M11.9421837,3.14900816 C8.65236054,3.14915782 5.36238776,3.1518517 2.07271429,3.14496735 C1.75259184,3.14436871 1.42094558,3.12850476 1.11519048,3.0448449 C0.415979592,2.85283129 -0.0389863946,2.21004218 0.00261904762,1.54764762 C0.046170068,0.855171429 0.535557823,0.291851701 1.24943537,0.156559184 C1.54037415,0.101484354 1.84328571,0.092355102 2.14095918,0.092355102 C8.69561224,0.092355102 15.2502653,0.095647619 21.8049184,0.102531973 C22.127585,0.102831293 22.4556395,0.110763265 22.7709728,0.169579592 C23.4647959,0.298885714 23.9161701,0.825987755 23.9637619,1.50888571 C24.0144966,2.23578367 23.6312177,2.82723946 22.9170408,3.03571565 C22.613381,3.12446395 22.2806871,3.14377007 21.9611633,3.14451837 C18.6215034,3.15200136 15.2816939,3.14900816 11.9421837,3.14900816" id="Fill-6" fill="#FEFEFE" mask="url(#mask-4)"></path>
            </g>
            <path d="M9.03375374,18.1132136 C6.59295102,18.1132136 4.1521483,18.1236898 1.71149524,18.1081252 C0.70862449,18.1018395 0.0155496599,17.4592 0.00761768707,16.5965605 C-1.49659864e-05,15.7336218 0.669563265,15.1257034 1.69323673,15.0679347 C1.76776735,15.0637442 1.84259728,15.0652408 1.91727755,15.0650912 C4.65710068,15.0629959 7.39677415,15.0597034 10.136298,15.0595537 C12.1537129,15.0594041 14.1711279,15.0547646 16.1885429,15.0689823 C17.1560939,15.0758667 17.7442571,15.4679755 17.9283388,16.1731728 C18.2046109,17.232166 17.4889374,18.0995946 16.2814816,18.1081252 C13.8656721,18.1253361 11.4497129,18.1132136 9.03375374,18.1132136" id="Fill-9" fill="#FEFEFE"></path>
            <path d="M5.99305442,24.1000422 C4.59867347,24.1000422 3.2039932,24.1076748 1.8097619,24.0976476 C0.736102041,24.090015 0.0279115646,23.4985592 0.00231972789,22.6164639 C-0.0240204082,21.7086272 0.69329932,21.0532667 1.80542177,21.0475796 C4.61902721,21.0339605 7.43308163,21.0380014 10.2468367,21.0576068 C11.3447415,21.0652395 12.0004014,21.6619333 11.9995034,22.5729129 C11.9986054,23.5145728 11.3184014,24.0916612 10.1764966,24.0980966 C8.78211565,24.1060286 7.38758503,24.1000422 5.99305442,24.1000422" id="Fill-11" fill="#FEFEFE"></path>
            <path d="M39.2866721,27.6246517 C39.1510803,29.2209238 39.0150395,30.8061211 38.8822912,32.3916177 C38.8261687,33.0619442 38.7901007,33.7340667 38.7217061,34.4031959 C38.6380463,35.2216857 38.101366,35.7267878 37.2375293,35.7998218 C35.3756109,35.9575633 33.5123456,36.1004884 31.6504272,36.2562844 C31.2836109,36.286815 30.9197878,36.3481755 30.6969442,36.3767605 C30.6969442,38.2112912 30.6526449,39.9772776 30.7060735,41.7402707 C30.8296925,45.826883 31.0056925,49.911849 31.148917,53.9980122 C31.1851347,55.0312639 30.6074476,55.6957537 29.7060463,55.718951 C28.7708218,55.7428966 28.1685905,55.102951 28.128781,54.0261483 C27.921502,48.3956449 27.716917,42.7649918 27.5106857,37.1344884 C27.505298,36.9902163 27.4901823,36.8463932 27.4741687,36.6302844 C25.6227265,36.7696177 23.8145361,36.895781 22.0082912,37.0440939 C18.7058966,37.3152776 15.4055973,37.6071143 12.1029034,37.8735088 C11.1310122,37.9519306 10.403815,37.3992367 10.307883,36.5741619 C10.2007265,35.6515088 10.7308218,34.9747469 11.7628762,34.8732776 C13.9446177,34.658366 16.1314476,34.495985 18.3166313,34.3163932 C22.3885769,33.9816041 26.4606721,33.6478626 30.5330667,33.3177129 C32.0479238,33.1949918 33.5624816,33.0571551 35.0800327,32.9806789 C35.6342231,32.9528422 35.8561687,32.7948014 35.9019646,32.2127741 C36.4783048,24.8858762 37.0787401,17.5609238 37.6734884,10.2353728 C37.7158422,9.71425714 37.7240735,9.1871551 37.8128218,8.67412109 C37.9660735,7.78858367 38.6115565,7.29695102 39.4379782,7.37657007 C40.2455429,7.4543932 40.8622912,8.1751551 40.7988354,9.05320952 C40.6584544,10.9911551 40.4827537,12.9265565 40.3232163,14.8631551 C40.059366,18.0652776 39.7970122,21.2674 39.5282231,24.5397129 C40.756332,24.6036177 41.9425361,24.6817401 43.1300871,24.7245429 C47.714019,24.8902163 52.2984,25.0424204 56.8824816,25.204502 C57.7912163,25.2366789 58.4049714,25.616366 58.5848626,26.2845973 C58.7623592,26.9434 58.6308082,27.5803524 58.026781,27.9272639 C57.6451483,28.146366 57.131815,28.2385565 56.6831347,28.2231415 C51.0276381,28.0294816 45.3730395,27.8055905 39.7181415,27.5917265 C39.5966177,27.5870871 39.4741959,27.6093864 39.2866721,27.6246517" id="Fill-13" fill="#FEFEFE"></path>
        </g>
    </g>
</svg>