<svg width="25" height="14" viewBox="0 0 25 14" fill="none" xmlns="http://www.w3.org/2000/svg">
<path d="M14.5833 7H15.625C15.625 7.84 15.3333 8.56 14.7083 9.12C14.0833 9.68 13.375 10 12.5 10C11.625 10 10.875 9.72 10.2917 9.12C9.70833 8.52 9.375 7.84 9.375 7C9.375 6.16 9.66667 5.44 10.2917 4.88C10.9167 4.32 11.625 4 12.5 4V5C11.9583 5 11.5 5.2 11.0833 5.56C10.6667 5.92 10.4167 6.4 10.4167 6.92C10.4167 7.44 10.625 7.96 11.0417 8.36C11.4583 8.76 11.9583 9 12.5 9C13.0417 9 13.5417 8.8 13.9583 8.4C14.375 8 14.5833 7.56 14.5833 7ZM15.4167 4.2C14.5833 3.4 13.625 3 12.5 3C11.375 3 10.375 3.4 9.58333 4.2C8.79167 5 8.33333 5.92 8.33333 7C8.33333 8.08 8.75 9.04 9.58333 9.8C10.4167 10.56 11.375 11 12.5 11C13.625 11 14.625 10.6 15.4167 9.8C16.2083 9 16.6667 8.08 16.6667 7C16.6667 5.92 16.25 4.96 15.4167 4.2ZM16.1667 10.56C15.1667 11.52 13.9167 12 12.5 12C11.0833 12 9.83333 11.52 8.83333 10.52C7.83333 9.56 7.29167 8.36 7.29167 7C7.29167 5.64 7.79167 4.44 8.83333 3.48C9.83333 2.48 11.0833 2 12.5 2C13.9167 2 15.1667 2.48 16.1667 3.48C17.1667 4.44 17.7083 5.64 17.7083 7C17.7083 8.36 17.2083 9.56 16.1667 10.56ZM12.5 1C10.5833 1 8.79167 1.48 7.08333 2.48C5.41667 3.44 3.5 4.96 1.41667 7C3.75 9.24 5.41667 10.68 6.375 11.24C8.20833 12.4 10.25 13 12.5 13C14 13 15.5417 12.64 17.0833 11.92C18.625 11.2 19.8333 10.48 20.6667 9.76C21.5 9.04 22.5 8.16 23.625 7.08C22.0417 5.36 20.4167 3.96 18.8333 2.92C16.7917 1.64 14.6667 1 12.5 1ZM24.9167 7L25 7.08L24.625 7.44C22.4583 9.52 20.75 10.96 19.5417 11.76C17.1667 13.24 14.8333 14 12.5 14C10.7917 14 9.20833 13.64 7.66667 12.92C6.125 12.2 4.95833 11.52 4.125 10.8C3.29167 10.08 2.08333 8.96 0.458333 7.44L0 7L0.0833333 6.92C2.45833 4.6 4.5 2.92 6.16667 1.88C8.25 0.64 10.375 0 12.5 0C16.5833 0 20.7083 2.32 24.9167 7Z" fill="white"/>
</svg>
