<svg width="30" height="30" viewBox="0 0 30 30" fill="none" xmlns="http://www.w3.org/2000/svg">
<path fill-rule="evenodd" clip-rule="evenodd" d="M24.5451 5.1738C22.0608 2.6979 18.639 1.1595 14.8551 1.1595C11.0718 1.1595 7.6497 2.6979 5.1738 5.1738C2.6976 7.6497 1.1595 11.0715 1.1595 14.8554C1.1595 18.6393 2.6976 22.0608 5.1738 24.5451C7.6497 27.021 11.0718 28.551 14.8551 28.551C18.639 28.551 22.0608 27.021 24.5451 24.5451C27.021 22.0608 28.551 18.6393 28.551 14.8554C28.551 11.0715 27.021 7.6497 24.5451 5.1738ZM14.8551 0C18.9597 0 22.6695 1.6614 25.3593 4.3515C28.0491 7.0413 29.7105 10.7508 29.7105 14.8554C29.7105 18.9597 28.0491 22.6695 25.3593 25.3593C22.6695 28.0491 18.9597 29.7105 14.8551 29.7105C10.7508 29.7105 7.041 28.0491 4.3512 25.3593C1.6614 22.6695 0 18.9597 0 14.8554C0 10.7508 1.6614 7.0413 4.3512 4.3515C7.041 1.6614 10.7508 0 14.8551 0Z" fill="#00B0AE"/>
<path fill-rule="evenodd" clip-rule="evenodd" d="M15.9903 11.82V10.6026C15.9903 10.0188 16.377 9.87904 16.6569 9.87904C16.9281 9.87904 18.3594 9.87904 18.3594 9.87904V7.27954H16.0152C13.4076 7.27954 12.8235 9.20434 12.8235 10.4547V11.82H11.31V14.8554H12.84C12.84 18.3018 12.84 22.4394 12.84 22.4394H15.8754C15.8754 22.4394 15.8754 18.2442 15.8754 14.8554H18.1209L18.2196 13.6626L18.4005 11.82H15.9903Z" fill="#00B0AE"/>
</svg>
