<svg width="30" height="30" viewBox="0 0 30 30" fill="none" xmlns="http://www.w3.org/2000/svg">
<path fill-rule="evenodd" clip-rule="evenodd" d="M24.537 5.1738C22.0608 2.6979 18.6387 1.1595 14.8551 1.1595C11.0715 1.1595 7.6497 2.6979 5.1735 5.1738C2.6898 7.6497 1.1598 11.0715 1.1598 14.8554C1.1598 18.6393 2.6898 22.0608 5.1735 24.5451C7.6497 27.021 11.0715 28.551 14.8551 28.551C18.6387 28.551 22.0608 27.021 24.537 24.5451C27.0207 22.0608 28.5501 18.6393 28.5501 14.8554C28.5501 11.0715 27.0207 7.6497 24.537 5.1738ZM14.8551 0C18.96 0 22.6695 1.6614 25.3593 4.3515C28.0488 7.0413 29.7108 10.7508 29.7108 14.8554C29.7108 18.9597 28.0488 22.6695 25.3593 25.3593C22.6695 28.0491 18.96 29.7105 14.8551 29.7105C10.7502 29.7105 7.0407 28.0491 4.3509 25.3593C1.6617 22.6695 0 18.9597 0 14.8554C0 10.7508 1.6617 7.0413 4.3509 4.3515C7.0407 1.6614 10.7502 0 14.8551 0Z" fill="#00B0AE"/>
<path fill-rule="evenodd" clip-rule="evenodd" d="M21.345 13.9755C21.2466 13.9755 21.1317 13.9755 21.0162 13.9755C21.0162 13.9506 21.0162 13.9176 21.0162 13.9092C21.0162 13.8189 21.0162 13.7451 21.0162 13.6791C21.0162 13.2594 21.0246 12.84 21.0162 12.4122C21.0162 12.3465 20.934 12.2232 20.9007 12.2232C20.523 12.2067 20.136 12.2067 19.7334 12.2067C19.7334 12.7167 19.7334 13.194 19.7334 13.6791C19.7334 13.7697 19.7334 13.8684 19.7334 13.9587C19.1325 13.9587 18.5736 13.9587 17.9643 13.9587C17.9643 14.0985 17.9643 14.1891 17.9643 14.2797C17.9811 14.5923 17.9895 14.913 18.0138 15.2256C18.3183 15.2421 18.6228 15.2583 18.9429 15.2583C19.1988 15.2664 19.4613 15.2583 19.7409 15.2583C19.7409 15.867 19.7409 16.4265 19.7409 16.9857C20.1774 16.9773 20.58 16.9857 21.0162 16.9857C21.0162 16.4097 21.0162 15.8508 21.0162 15.2583C21.6084 15.2583 22.1676 15.2583 22.7433 15.2583C22.7433 14.9211 22.7433 14.6085 22.7433 14.2797C22.7433 14.1726 22.7433 14.0739 22.7433 13.9755C22.2831 13.9755 21.8142 13.9755 21.345 13.9755ZM16.3686 13.8189C15.2748 13.8354 14.1807 13.8354 13.0869 13.8354C12.7746 13.8354 12.4536 13.8189 12.1488 13.8354C12.0834 13.8354 11.9847 13.9092 11.9847 13.9506C11.9763 14.5839 11.9763 15.2172 11.9763 15.8754C12.873 15.8754 13.7529 15.8754 14.6496 15.8754C14.625 16.0068 14.6004 16.1055 14.5593 16.1961C14.1558 17.4135 12.8973 18.0141 11.5401 17.7921C9.86221 17.5122 8.82601 15.9657 9.13021 14.2878C9.16321 14.0493 9.24541 13.8189 9.32761 13.605C9.88681 12.3876 11.2605 11.6472 12.618 11.9517C13.1031 12.0585 13.5231 12.2808 13.8759 12.6015C14.3697 12.108 14.8386 11.6391 15.3486 11.1291C15.3156 11.1045 15.2583 11.0634 15.2253 11.0223C14.0409 10.0269 12.6834 9.65675 11.1618 9.91175C8.96521 10.2654 7.38661 11.9928 7.04941 14.0079C6.89311 14.8635 6.95881 15.7767 7.29631 16.665C8.13541 18.7956 10.2816 20.103 12.585 19.8483C13.7118 19.7247 14.7156 19.3218 15.4887 18.4908C16.6479 17.2572 16.9521 15.7767 16.7634 14.1399C16.7304 13.8684 16.6239 13.8189 16.3686 13.8189Z" fill="#00B0AE"/>
</svg>
