<svg width="20" height="15" viewBox="0 0 20 15" fill="none" xmlns="http://www.w3.org/2000/svg">
<path fill-rule="evenodd" clip-rule="evenodd" d="M17.1454 8.63991V14.2518C17.1454 14.4544 17.0669 14.6298 16.9097 14.7779C16.7526 14.926 16.5665 15 16.3515 15H11.5879V10.5105H8.41213V15H3.64852C3.43349 15 3.24742 14.926 3.09028 14.7779C2.93315 14.6298 2.85458 14.4544 2.85458 14.2518V8.63991C2.85458 8.63211 2.85665 8.62042 2.86079 8.60483C2.86492 8.58924 2.86699 8.57755 2.86699 8.56976L10 3.02806L17.133 8.56976C17.1413 8.58535 17.1454 8.60873 17.1454 8.63991ZM19.9118 7.8332L19.1427 8.69836C19.0765 8.76851 18.9897 8.81138 18.8821 8.82697H18.8449C18.7374 8.82697 18.6506 8.79969 18.5844 8.74513L10 1.99922L1.41558 8.74513C1.31633 8.80748 1.21709 8.83476 1.11785 8.82697C1.01034 8.81138 0.923501 8.76851 0.85734 8.69836L0.0882151 7.8332C0.0220534 7.75526 -0.00689182 7.66368 0.00137838 7.55846C0.00964858 7.45323 0.055134 7.36945 0.137836 7.30709L9.0572 0.303977C9.32185 0.101326 9.63611 0 10 0C10.3639 0 10.6782 0.101326 10.9428 0.303977L13.9697 2.68901V0.409197C13.9697 0.30008 14.0069 0.210446 14.0813 0.140298C14.1558 0.0701488 14.2509 0.0350744 14.3666 0.0350744H16.7484C16.8642 0.0350744 16.9593 0.0701488 17.0338 0.140298C17.1082 0.210446 17.1454 0.30008 17.1454 0.409197V5.17927L19.8622 7.30709C19.9449 7.36945 19.9904 7.45323 19.9986 7.55846C20.0069 7.66368 19.9779 7.75526 19.9118 7.8332Z" fill="#8D8D8D"/>
</svg>
