<svg width="20" height="21" viewBox="0 0 20 21" fill="none" xmlns="http://www.w3.org/2000/svg">
<path d="M8.78335 0.0143123C7.10966 0.257579 5.45393 0.904524 4.18392 1.80657C3.45983 2.31698 2.3086 3.46822 1.79818 4.1923C1.05042 5.24272 0.439188 6.64926 0.136532 8.02029C0.0238778 8.53662 0.00591843 8.79173 0 9.97868C0 11.1893 0.0177553 11.4148 0.136532 11.9905C0.901846 15.5573 3.4182 18.4061 6.80109 19.5337C8.02376 19.9371 8.44498 20.0024 9.97031 20.0024C11.4599 20.0083 11.7746 19.9667 12.9377 19.6108C16.4569 18.5426 19.0743 15.6642 19.8576 11.9905C19.9822 11.4207 20 11.1834 20 10.0083C20 8.55418 19.9584 8.22193 19.6024 7.07049C18.5343 3.56312 15.6559 0.939831 12.012 0.150641C11.5075 0.043906 11.1752 0.0141094 10.1781 0.00227257C9.50724 -0.00364584 8.88417 0.00227138 8.78335 0.0143123ZM11.7507 1.34371C12.5934 1.52167 13.1277 1.71167 13.9467 2.11515C15.6381 2.95189 17.0565 4.37027 17.8932 6.06171C18.5816 7.44457 18.8012 8.41193 18.8071 9.97868C18.8131 11.5277 18.5757 12.5603 17.911 13.9134L17.5788 14.5781L17.2939 14.3112C16.6945 13.7473 15.3591 13.0352 13.8518 12.4713L13.104 12.1864L12.6885 12.5367C12.1485 12.9877 11.7211 13.243 11.1752 13.4387C10.7954 13.5752 10.653 13.593 10.0001 13.593C9.34724 13.593 9.20479 13.5752 8.82499 13.4387C8.27906 13.2428 7.85171 12.9877 7.31171 12.5367L6.89619 12.1864L6.14843 12.4713C4.64107 13.0352 3.30575 13.7473 2.70023 14.3171L2.41533 14.5842L2.089 13.9136C0.777355 11.2191 0.866335 8.17479 2.34411 5.59905C3.06819 4.32312 4.31453 3.07679 5.59046 2.3527C6.5519 1.80086 7.79232 1.37943 8.88417 1.23106C9.56071 1.14187 11.0562 1.20126 11.7507 1.34371Z" fill="#00B0AE"/>
<path d="M9.17126 3.57482C8.58373 3.69952 7.88948 4.06749 7.40868 4.51261C5.90731 5.90122 5.63426 8.02598 6.67279 10.1446C7.69948 12.2396 9.52737 13.1951 11.1118 12.4712C12.3522 11.9073 13.4084 10.483 13.8121 8.82722C13.9782 8.15659 13.9841 7.1833 13.8358 6.60165C13.2601 4.42934 11.2542 3.12379 9.17126 3.57482Z" fill="#00B0AE"/>
</svg>
