<svg width="27" height="27" viewBox="0 0 27 27" fill="none" xmlns="http://www.w3.org/2000/svg">
<path d="M21.3499 16.7255C20.7963 16.15 20.1286 15.8422 19.421 15.8422C18.7191 15.8422 18.0457 16.1443 17.4693 16.7198L15.6659 18.5148C15.5175 18.4351 15.3691 18.361 15.2265 18.2869C15.021 18.1843 14.827 18.0874 14.6615 17.9849C12.9723 16.9136 11.4371 15.5174 9.96478 13.711C9.25143 12.8106 8.77205 12.0527 8.42394 11.2834C8.8919 10.856 9.32562 10.4116 9.74792 9.98417C9.90771 9.82461 10.0675 9.65935 10.2273 9.49979C11.4257 8.30311 11.4257 6.75311 10.2273 5.55642L8.66933 4.00073C8.49242 3.82408 8.3098 3.64172 8.13859 3.45937C7.79619 3.10606 7.43666 2.74136 7.06571 2.39945C6.51215 1.85239 5.85016 1.56177 5.15392 1.56177C4.45769 1.56177 3.78428 1.85239 3.2136 2.39945C3.20789 2.40515 3.20789 2.40515 3.20219 2.41085L1.26186 4.36544C0.531391 5.09484 0.114792 5.98381 0.0234828 7.01524C-0.113481 8.67921 0.377306 10.2292 0.753957 11.2435C1.67846 13.7338 3.05952 16.0417 5.11968 18.5148C7.61927 21.4952 10.6268 23.8486 14.0623 25.5069C15.3749 26.128 17.1269 26.8632 19.0843 26.9885C19.2041 26.9942 19.3297 26.9999 19.4438 26.9999C20.7621 26.9999 21.8692 26.5269 22.7367 25.5867C22.7424 25.5753 22.7538 25.5696 22.7595 25.5582C23.0562 25.1992 23.3987 24.8744 23.7582 24.5268C24.0036 24.2931 24.2547 24.0481 24.5001 23.7917C25.0651 23.2047 25.3618 22.5209 25.3618 21.82C25.3618 21.1134 25.0593 20.4352 24.483 19.8654L21.3499 16.7255ZM23.393 22.726C23.3872 22.726 23.3872 22.7317 23.393 22.726C23.1704 22.9654 22.9421 23.1819 22.6967 23.4213C22.3258 23.7746 21.9491 24.145 21.5953 24.561C21.0189 25.1764 20.3398 25.467 19.4495 25.467C19.3639 25.467 19.2726 25.467 19.187 25.4613C17.4921 25.3531 15.917 24.692 14.7357 24.1279C11.5056 22.5665 8.66933 20.3498 6.31241 17.5404C4.36638 15.1983 3.06522 13.0329 2.20349 10.7079C1.67276 9.28895 1.47872 8.18344 1.56433 7.14061C1.6214 6.47388 1.8782 5.92113 2.35187 5.44815L4.2979 3.50496C4.57753 3.24283 4.87429 3.10037 5.16534 3.10037C5.52487 3.10037 5.81592 3.31691 5.99853 3.49926C6.00424 3.50496 6.00995 3.51066 6.01565 3.51636C6.36377 3.84117 6.69477 4.17738 7.04288 4.53639C7.2198 4.71874 7.40241 4.9011 7.58503 5.08915L9.143 6.64484C9.74792 7.24888 9.74792 7.80734 9.143 8.41138C8.9775 8.57663 8.81771 8.74189 8.65221 8.90145C8.17284 9.39152 7.71629 9.8474 7.2198 10.2919C7.20838 10.3033 7.19697 10.309 7.19126 10.3204C6.70047 10.8105 6.79178 11.2891 6.89451 11.6139C6.90021 11.631 6.90592 11.6481 6.91163 11.6652C7.31681 12.6454 7.88749 13.5685 8.75493 14.6683L8.76064 14.674C10.3357 16.6115 11.9964 18.1216 13.8283 19.2784C14.0623 19.4266 14.302 19.5463 14.5302 19.6602C14.7357 19.7628 14.9297 19.8597 15.0952 19.9623C15.118 19.9737 15.1409 19.9908 15.1637 20.0021C15.3577 20.099 15.5404 20.1446 15.7287 20.1446C16.2023 20.1446 16.4991 19.8483 16.5961 19.7514L18.5479 17.8025C18.7419 17.6088 19.0501 17.3751 19.4096 17.3751C19.7634 17.3751 20.0545 17.5974 20.2314 17.7911C20.2371 17.7968 20.2371 17.7968 20.2428 17.8025L23.3872 20.9424C23.975 21.5237 23.975 22.122 23.393 22.726Z" fill="white"/>
<path d="M14.5933 6.42283C16.0885 6.67357 17.4467 7.38018 18.531 8.4629C19.6153 9.54562 20.3173 10.9019 20.5741 12.3949C20.6368 12.771 20.9621 13.0331 21.3331 13.0331C21.3787 13.0331 21.4187 13.0274 21.4643 13.0217C21.8866 12.9533 22.1663 12.5544 22.0978 12.1327C21.7896 10.3263 20.9336 8.67944 19.6267 7.37448C18.3199 6.06952 16.6706 5.21475 14.8615 4.90703C14.4392 4.83865 14.0455 5.11787 13.9713 5.53386C13.8971 5.94986 14.171 6.35445 14.5933 6.42283Z" fill="white"/>
<path d="M26.9883 11.9102C26.4804 8.9356 25.0765 6.2288 22.9193 4.07477C20.7622 1.92073 18.0514 0.518896 15.0724 0.0117284C14.6559 -0.0623523 14.2621 0.222573 14.1879 0.638565C14.1194 1.06025 14.399 1.45345 14.8213 1.52753C17.4807 1.97771 19.9061 3.23709 21.835 5.15748C23.764 7.08358 25.0195 9.50545 25.4703 12.161C25.5331 12.5371 25.8584 12.7992 26.2293 12.7992C26.275 12.7992 26.3149 12.7935 26.3606 12.7878C26.7772 12.7251 27.0625 12.3262 26.9883 11.9102Z" fill="white"/>
</svg>
