<svg width="20" height="21" viewBox="0 0 20 21" fill="none" xmlns="http://www.w3.org/2000/svg">
<path d="M4.89084 16.764L3.47826 17.2687L3.97358 15.8293L4.89084 16.764ZM5.00091 12.9133L7.77105 15.7359L5.34947 16.6144L4.13869 15.3807L5.00091 12.9133ZM13.348 4.23997C13.5315 4.07173 13.7516 3.97827 14.0084 3.97827C14.2653 3.97827 14.4671 4.07173 14.6505 4.23997L16.2649 5.88491C16.43 6.07183 16.5217 6.29614 16.5217 6.55784C16.5217 6.81953 16.43 7.04384 16.2466 7.23077L15.2559 8.24016L12.3574 5.26806L13.348 4.23997ZM13.6415 8.55794L13.3297 8.22147L7.84443 13.8292L8.1563 14.147L13.6415 8.55794ZM13.0178 7.9037L12.6876 7.58593L7.184 13.175L7.49587 13.4928L13.0178 7.9037ZM12.3574 7.24946L12.0455 6.93169L6.54191 12.5208L6.87213 12.8572L12.3574 7.24946ZM5.22106 12.5208L12.0455 5.56714L14.9624 8.53925L8.13795 15.5116L5.22106 12.5208Z" fill="white"/>
<rect x="0.5" y="1" width="19" height="19" rx="2.5" stroke="white"/>
</svg>
