<svg width="30" height="30" viewBox="0 0 30 30" fill="none" xmlns="http://www.w3.org/2000/svg">
<path fill-rule="evenodd" clip-rule="evenodd" d="M24.7843 5.22416C22.2758 2.72416 18.8207 1.17079 15 1.17079C11.1877 1.17079 7.72446 2.72416 5.22446 5.22416C2.72446 7.72416 1.17139 11.1793 1.17139 15C1.17139 18.8207 2.72446 22.2755 5.22446 24.784C7.72446 27.284 11.1877 28.8289 15 28.8289C18.8207 28.8289 22.2758 27.284 24.7843 24.784C27.2843 22.2755 28.8289 18.8207 28.8289 15C28.8289 11.1793 27.2843 7.72416 24.7843 5.22416ZM25.6064 4.39386C28.3224 7.10984 30 10.8554 30 15C30 19.1443 28.3224 22.8902 25.6064 25.6061C22.8986 28.3221 19.1446 29.9997 15 29.9997C10.8639 29.9997 7.11014 28.3221 4.39386 25.6061C1.67788 22.8902 0 19.1443 0 15C0 10.8554 1.67788 7.10984 4.39386 4.39386C7.11014 1.67757 10.8639 0 15 0C19.1446 0 22.8986 1.67757 25.6064 4.39386Z" fill="#00B0AE"/>
<path fill-rule="evenodd" clip-rule="evenodd" d="M21.6045 10.0161V19.8C21.6045 20.2288 21.4465 20.6012 21.1305 20.9172C20.8145 21.2331 20.4309 21.3911 19.9795 21.3911H10.2295C9.77807 21.3911 9.39439 21.2331 9.07842 20.9172C8.76245 20.6012 8.60446 20.2288 8.60446 19.8V10.0161C8.60446 9.56472 8.76245 9.18105 9.07842 8.86507C9.39439 8.5491 9.77807 8.39111 10.2295 8.39111H19.9795C20.4309 8.39111 20.8145 8.5491 21.1305 8.86507C21.4465 9.18105 21.6045 9.56472 21.6045 10.0161ZM17.0003 12.9953C16.4812 12.4536 15.8493 12.1828 15.1045 12.1828C14.3597 12.1828 13.7221 12.448 13.1917 12.9784C12.6613 13.5087 12.3961 14.1463 12.3961 14.8911C12.3961 15.6359 12.6613 16.2735 13.1917 16.8039C13.7221 17.3343 14.3597 17.5994 15.1045 17.5994C15.8493 17.5994 16.4868 17.3343 17.0172 16.8039C17.5476 16.2735 17.8128 15.6359 17.8128 14.8911C17.8128 14.1463 17.542 13.5144 17.0003 12.9953ZM20.5211 11.6411V10.0161C20.5211 9.655 20.3406 9.47445 19.9795 9.47445H18.3545C17.9934 9.47445 17.8128 9.655 17.8128 10.0161V11.6411C17.8128 12.0022 17.9934 12.1828 18.3545 12.1828H19.9795C20.3406 12.1828 20.5211 12.0022 20.5211 11.6411ZM20.0133 20.3078C20.3519 20.3078 20.5211 20.1272 20.5211 19.7661V13.8078H18.7607C18.851 14.1012 18.8961 14.4623 18.8961 14.8911C18.8961 15.9519 18.535 16.8434 17.8128 17.5656C17.068 18.3104 16.1652 18.6828 15.1045 18.6828C14.0663 18.6828 13.1748 18.3104 12.43 17.5656C11.6852 16.8208 11.3128 15.9293 11.3128 14.8911C11.3128 14.5526 11.3692 14.1915 11.4821 13.8078H9.6878V19.7661C9.6878 19.9241 9.74422 20.0539 9.85707 20.1554C9.96991 20.257 10.1053 20.3078 10.2633 20.3078H20.0133Z" fill="#00B0AE"/>
</svg>
