<svg width="100" height="24" viewBox="0 0 100 24" fill="none" xmlns="http://www.w3.org/2000/svg">
<path fill-rule="evenodd" clip-rule="evenodd" d="M17.1867 9.53918C17.3566 9.77438 17.4483 10.0581 17.4485 10.3495C17.4522 11.1215 16.838 11.7503 16.0764 11.754C15.3148 11.7576 14.6945 11.135 14.6909 10.3631C14.6873 9.61513 15.2655 8.99649 16.0029 8.96035C13.2956 8.04496 10.3692 9.52788 9.46637 12.2721C8.56358 15.016 10.0263 17.9824 12.7335 18.8978C15.4405 19.8129 18.3669 18.3302 19.27 15.586C20.0137 13.3247 19.1577 10.8394 17.1867 9.53918" fill="white"/>
<path fill-rule="evenodd" clip-rule="evenodd" d="M18.1588 1.27173C18.1588 1.27173 21.6602 5.03267 21.6602 9.00538C21.6602 7.89855 21.6936 20.3447 21.7047 20.4915H12.8301C12.8301 20.4915 9.33705 20.4633 7.74652 17.2557C6.73705 15.129 7.00362 12.6065 8.43454 10.7447C9.3 9.58392 10.4465 8.66994 11.7632 8.09055C12.5128 7.76048 13.3056 7.54279 14.117 7.44396C11.8017 7.05375 9.43092 7.66843 7.58496 9.13808C7.59888 9.08726 7.61003 9.03643 7.62395 8.98561C7.62395 8.98561 7.58496 9.06749 7.52089 9.1889C4.65459 11.4799 3.66017 15.4346 5.09471 18.8369C6.28969 21.6237 8.88579 23.5776 11.7131 23.8628H12.3538H25.0585V8.89808C25.0585 8.89808 24.2061 3.08443 18.1588 1.27173" fill="white"/>
<mask id="mask0" mask-type="alpha" maskUnits="userSpaceOnUse" x="0" y="0" width="21" height="15">
<path fill-rule="evenodd" clip-rule="evenodd" d="M0.637939 0.282471H20.8945V14.3645H0.637939V0.282471Z" fill="white"/>
</mask>
<g mask="url(#mask0)">
<path fill-rule="evenodd" clip-rule="evenodd" d="M10.1254 2.50573C15.7574 2.51674 20.3143 7.15382 20.3034 12.8627C20.3023 13.3653 20.2652 13.8673 20.1923 14.3645C22.2404 9.0566 19.656 3.07043 14.4196 0.99429C9.18306 -1.08213 3.27749 1.53782 1.2293 6.84577C0.948524 7.5734 0.749917 8.33123 0.637939 9.10431C2.15215 5.12935 5.92178 2.5077 10.1254 2.50573" fill="white"/>
</g>
<path fill-rule="evenodd" clip-rule="evenodd" d="M15.7354 5.98987V5.98987L15.7104 5.97576C15.0262 5.53557 14.2906 5.18263 13.521 4.9254L13.4207 4.89152L13.2285 4.8294L12.9945 4.76164L12.8914 4.7334C12.7836 4.7015 12.6722 4.67326 12.5572 4.6487H12.5126L12.1393 4.56964H12.1031C11.4552 4.44823 10.7978 4.38667 10.1393 4.38611C4.54045 4.38611 6.10352e-05 8.75693 6.10352e-05 14.1473C6.10352e-05 18.5405 3.01677 22.2562 7.16441 23.4816C4.36719 21.7449 2.65104 18.6689 2.62402 15.3442C2.62318 13.636 3.08474 11.9602 3.95828 10.499C6.18669 6.74376 10.663 5.11458 14.8218 6.35128C16.273 6.75533 17.5608 7.61397 18.5015 8.80493C17.812 7.65801 16.8641 6.69321 15.7354 5.98987" fill="white"/>
<path fill-rule="evenodd" clip-rule="evenodd" d="M34.4453 4.12463H36.5213V10.7441C36.5213 11.6098 36.4461 12.2756 36.296 12.7418C36.0943 13.35 35.7283 13.8387 35.1982 14.2075C34.6681 14.5759 33.969 14.76 33.101 14.76C32.0832 14.76 31.2996 14.4712 30.7506 13.8938C30.2018 13.3158 29.925 12.4682 29.9202 11.3506L31.8837 11.1222C31.9071 11.7213 31.9938 12.1446 32.1442 12.3919C32.3693 12.7677 32.7116 12.9558 33.1715 12.9558C33.6361 12.9558 33.9642 12.8211 34.1567 12.5526C34.3489 12.2838 34.4453 11.7264 34.4453 10.8796V4.12463Z" fill="white"/>
<path fill-rule="evenodd" clip-rule="evenodd" d="M41.7645 14.582V4.12451H49.414V5.89345H43.8475V8.21185H49.0269V9.97374H43.8475V12.8201H49.611V14.582H41.7645Z" fill="white"/>
<path fill-rule="evenodd" clip-rule="evenodd" d="M56.8444 14.582V5.89345H53.7834V4.12451H61.9814V5.89345H58.9274V14.582H56.8444Z" fill="white"/>
<path fill-rule="evenodd" clip-rule="evenodd" d="M70.8062 10.4445L69.3845 6.56416L67.9914 10.4445H70.8062ZM74.6416 14.5821H72.3756L71.4747 12.2064H67.351L66.4992 14.5821H64.2895L68.3079 4.12463H70.5104L74.6416 14.5821Z" fill="white"/>
<path fill-rule="evenodd" clip-rule="evenodd" d="M80.8629 8.54725H82.4041C83.4033 8.54725 84.0273 8.50461 84.276 8.41878C84.5248 8.33323 84.7195 8.18612 84.8601 7.97661C85.0008 7.76739 85.0713 7.50593 85.0713 7.19196C85.0713 6.84014 84.9785 6.55581 84.7933 6.33953C84.6078 6.12325 84.3465 5.98659 84.0086 5.92956C83.8398 5.90584 83.3331 5.8937 82.4885 5.8937H80.8629V8.54725ZM78.7799 14.5823V4.12476H83.1643C84.2665 4.12476 85.0679 4.2185 85.5674 4.40626C86.0671 4.59431 86.4668 4.92833 86.7671 5.40861C87.0674 5.8889 87.2175 6.43807 87.2175 7.05643C87.2175 7.84109 86.9899 8.48909 86.5348 9.00014C86.0799 9.51149 85.3997 9.83365 84.4941 9.96664C84.9445 10.2332 85.3164 10.5257 85.6097 10.8442C85.9027 11.163 86.298 11.7288 86.7955 12.5417L88.0548 14.5823H85.5638L84.0579 12.3062C83.5231 11.4933 83.1571 10.9809 82.9601 10.7691C82.7629 10.5576 82.5543 10.4125 82.3337 10.334C82.1131 10.2558 81.7638 10.2165 81.2852 10.2165H80.8629V14.5823H78.7799Z" fill="white"/>
<path fill-rule="evenodd" clip-rule="evenodd" d="M94.5299 14.582V5.89345H91.4689V4.12451H99.6669V5.89345H96.6129V14.582H94.5299Z" fill="white"/>
<path fill-rule="evenodd" clip-rule="evenodd" d="M31.0536 21.827V18.6559H29.8851V18.2316H32.6965V18.6559H31.5232V21.827H31.0536Z" fill="white"/>
<path fill-rule="evenodd" clip-rule="evenodd" d="M34.5058 20.3505H35.7083L35.3381 19.355C35.2253 19.0523 35.1412 18.8038 35.0863 18.6093C35.0412 18.8397 34.9777 19.0687 34.8952 19.2959L34.5058 20.3505ZM35.3236 17.7139H35.0092L34.4501 17.3265H34.9969L35.3236 17.7139ZM35.0863 17.9421L34.7696 18.1064H34.3462L34.8518 17.8046H35.3236L35.827 18.1064H35.4036L35.0863 17.9421ZM33.4824 21.827L34.8445 18.2315H35.3504L36.8022 21.827H36.2674L35.8535 20.7382H34.3704L33.9808 21.827H33.4824Z" fill="white"/>
<path fill-rule="evenodd" clip-rule="evenodd" d="M37.8563 21.827V18.2316H38.563L39.4026 20.7773C39.48 21.0144 39.5363 21.1918 39.5719 21.3095C39.6123 21.1788 39.675 20.9865 39.7605 20.7332L40.6098 18.2316H41.2413V21.827H40.7889V18.8177L39.7583 21.827H39.3349L38.309 18.7661V21.827H37.8563Z" fill="white"/>
<path fill-rule="evenodd" clip-rule="evenodd" d="M44.7582 21.827V18.2316H45.2399L47.1028 21.0545V18.2316H47.5529V21.827H47.0713L45.2084 19.0015V21.827H44.7582Z" fill="white"/>
<path fill-rule="evenodd" clip-rule="evenodd" d="M49.0501 21.827V18.2316H49.5195V19.708H51.3632V18.2316H51.8326V21.827H51.3632V20.1324H49.5195V21.827H49.0501Z" fill="white"/>
<mask id="mask1" mask-type="alpha" maskUnits="userSpaceOnUse" x="0" y="0" width="100" height="24">
<path fill-rule="evenodd" clip-rule="evenodd" d="M0 23.8629H99.8663V0.282471H0V23.8629Z" fill="white"/>
</mask>
<g mask="url(#mask1)">
<path fill-rule="evenodd" clip-rule="evenodd" d="M53.4206 21.8268H53.9366V18.2313H53.4206V21.8268ZM54.0563 18.0105H53.6705L53.0563 17.3239H53.6971L54.0563 18.0105Z" fill="white"/>
<path fill-rule="evenodd" clip-rule="evenodd" d="M55.3735 21.827V18.2316H55.8552L57.7181 21.0545V18.2316H58.1682V21.827H57.6866L55.8234 19.0015V21.827H55.3735Z" fill="white"/>
<path fill-rule="evenodd" clip-rule="evenodd" d="M61.7166 21.827V18.2316H62.1982L64.0611 21.0545V18.2316H64.5113V21.827H64.0296L62.1664 19.0015V21.827H61.7166Z" fill="white"/>
<path fill-rule="evenodd" clip-rule="evenodd" d="M67.6537 20.4167V19.9949L69.1562 19.9926V21.3267C68.9253 21.5131 68.6877 21.6534 68.4423 21.7474C68.1972 21.8414 67.9457 21.8883 67.6874 21.8883C67.339 21.8883 67.0223 21.8126 66.7379 21.6616C66.4529 21.5102 66.2381 21.2917 66.0927 21.0054C65.9479 20.7194 65.8752 20.3995 65.8752 20.0462C65.8752 19.6964 65.9473 19.37 66.0919 19.0668C66.2362 18.7635 66.4437 18.5382 66.7147 18.3908C66.986 18.2437 67.298 18.1703 67.6512 18.1703C67.9078 18.1703 68.1395 18.2121 68.3468 18.2965C68.554 18.3806 68.7164 18.4981 68.8342 18.6483C68.9521 18.7991 69.0415 18.995 69.103 19.237L68.6796 19.3548C68.6262 19.1718 68.5601 19.0278 68.4813 18.923C68.4022 18.8186 68.2891 18.7347 68.1423 18.6717C67.9958 18.6088 67.8328 18.5772 67.6537 18.5772C67.439 18.5772 67.2535 18.6105 67.0972 18.6765C66.9406 18.7429 66.8142 18.8299 66.7186 18.938C66.6225 19.0459 66.5479 19.1642 66.4947 19.2932C66.4044 19.516 66.3593 19.7571 66.3593 20.0169C66.3593 20.3376 66.4136 20.6056 66.5223 20.8216C66.6312 21.0373 66.7897 21.1977 66.998 21.3021C67.2061 21.4069 67.427 21.4591 67.6607 21.4591C67.864 21.4591 68.0626 21.4196 68.256 21.3403C68.4496 21.2609 68.5966 21.1762 68.6964 21.0864V20.4167H67.6537Z" fill="white"/>
<path fill-rule="evenodd" clip-rule="evenodd" d="M70.5565 21.827V18.2316H71.0262V19.708H72.8699V18.2316H73.339V21.827H72.8699V20.1324H71.0262V21.827H70.5565Z" fill="white"/>
<path fill-rule="evenodd" clip-rule="evenodd" d="M75.8986 22.6242H76.3944V22.1213H75.8986V22.6242ZM76.1017 17.9419L75.7847 18.1062H75.3613L75.8669 17.8047H76.339L76.8421 18.1062H76.4187L76.1017 17.9419ZM74.824 21.8271V18.2313H77.3889V18.6557H75.2936V19.7572H77.256V20.179H75.2936V21.4027H77.471V21.8271H74.824Z" fill="white"/>
<path fill-rule="evenodd" clip-rule="evenodd" d="M81.9004 21.827V18.6559H80.7319V18.2316H83.5433V18.6559H82.37V21.827H81.9004Z" fill="white"/>
<path fill-rule="evenodd" clip-rule="evenodd" d="M84.7333 21.827V18.2316H85.2026V19.708H87.0464V18.2316H87.5157V21.827H87.0464V20.1324H85.2026V21.827H84.7333Z" fill="white"/>
<path fill-rule="evenodd" clip-rule="evenodd" d="M91.3187 18.2314H91.7883V20.3087C91.7883 20.6704 91.7477 20.957 91.6672 21.1696C91.5864 21.3822 91.4407 21.555 91.2304 21.6883C91.0201 21.8218 90.7438 21.8882 90.4017 21.8882C90.0694 21.8882 89.7975 21.8303 89.5861 21.7143C89.3747 21.5982 89.224 21.4302 89.1337 21.2103C89.0435 20.9903 88.9984 20.6899 88.9984 20.3087V18.2314H89.4674V20.3065C89.4674 20.6187 89.4964 20.8489 89.5535 20.9968C89.6109 21.1448 89.7092 21.2588 89.8488 21.339C89.9883 21.4192 90.1588 21.4593 90.3607 21.4593C90.7059 21.4593 90.9518 21.3797 91.0986 21.2213C91.2451 21.0626 91.3187 20.7577 91.3187 20.3065V18.2314Z" fill="white"/>
<path fill-rule="evenodd" clip-rule="evenodd" d="M94.2504 22.6242H94.7465V22.1213H94.2504V22.6242ZM93.8975 20.3504H95.0997L94.7298 19.3548C94.6167 19.0524 94.5329 18.8039 94.478 18.6091C94.4329 18.8398 94.3691 19.0685 94.2869 19.2958L93.8975 20.3504ZM94.478 17.9419L94.161 18.1062H93.7379L94.2435 17.8047H94.7151L95.2184 18.1062H94.795L94.478 17.9419ZM92.8738 21.8271L94.2362 18.2313H94.7418L96.1936 21.8271H95.6588L95.2451 20.7381H93.7619L93.3722 21.8271H92.8738Z" fill="white"/>
<path fill-rule="evenodd" clip-rule="evenodd" d="M98.2234 21.827V18.6559H97.0549V18.2316H99.8663V18.6559H98.693V21.827H98.2234Z" fill="white"/>
</g>
</svg>
