<svg width="39" height="38" viewBox="0 0 39 38" fill="none" xmlns="http://www.w3.org/2000/svg">
<path fill-rule="evenodd" clip-rule="evenodd" d="M34.0395 3.66377H36.3915C37.0636 3.65945 37.7088 3.92437 38.1832 4.39831C38.6576 4.87257 38.9208 5.51625 38.9145 6.18555V35.444C38.9218 36.116 38.6596 36.763 38.1858 37.2413C37.7121 37.7199 37.0663 37.9898 36.3915 37.9914H2.60856C1.93404 37.9898 1.28825 37.7199 0.814517 37.2413C0.340781 36.763 0.0781885 36.116 0.0855384 35.444V6.18555C0.0791908 5.51625 0.342786 4.87257 0.817189 4.39831C1.29126 3.92437 1.93672 3.65945 2.60856 3.66377H4.96054V0.84346C4.9709 0.371855 5.35944 -0.00389831 5.83317 9.55256e-05H11.7856C12.2603 -0.00689368 12.6509 0.370524 12.6579 0.84346V3.66377H26.3421V0.84346C26.3525 0.371855 26.741 -0.00389831 27.2148 9.55256e-05H33.1672C33.6406 -0.00389831 34.0295 0.371855 34.0395 0.84346V3.66377ZM32.329 1.70413H28.0526V7.83866H32.329V1.70413ZM6.67106 1.70413H10.9474V7.83866H6.67106V1.70413ZM4.96054 5.36781H2.60856C2.39007 5.36248 2.17893 5.44702 2.02525 5.60178C1.87123 5.75687 1.78838 5.96788 1.79606 6.18555V12.8656H37.204V6.18555C37.212 5.96788 37.1291 5.75687 36.9751 5.60178C36.8214 5.44702 36.6103 5.36248 36.3915 5.36781H34.0395V8.67371C34.0315 9.1503 33.6456 9.53471 33.1672 9.5427H27.2148C26.735 9.5377 26.3475 9.1513 26.3421 8.67371V5.36781H12.6579V8.67371C12.6499 9.1503 12.264 9.53471 11.7856 9.5427H5.83317C5.35476 9.53471 4.96889 9.1503 4.96054 8.67371V5.36781ZM28.2237 14.5696V20.4485H20.3553V14.5696H28.2237ZM10.7763 20.4485H18.6447V14.5696H10.7763V20.4485ZM9.0658 20.4485H1.79606V14.5696H9.0658V20.4485ZM9.0658 28.0315V22.1526H1.79606V28.0315H9.0658ZM10.7763 22.1526H18.6447V28.0315H10.7763V22.1526ZM18.6447 36.2961V29.7355H10.7763V36.2961H18.6447ZM20.3553 29.7355H28.2237V36.2961H20.3553V29.7355ZM20.3553 22.1526V28.0315H28.2237V22.1526H20.3553ZM29.9342 22.1526H37.204V28.0315H29.9342V22.1526ZM29.9342 14.5696V20.4485H37.204V14.5696H29.9342ZM1.79606 35.4524V29.7355H9.0658V36.2961H2.60856C2.13817 36.2961 1.79606 35.921 1.79606 35.4524ZM29.9342 36.2961H36.3915C36.8619 36.2961 37.204 35.921 37.204 35.4524V29.7355H29.9342V36.2961Z" fill="#00B2BD"/>
</svg>
