<svg width="30" height="30" viewBox="0 0 30 30" fill="none" xmlns="http://www.w3.org/2000/svg">
<g opacity="0.8">
<path fill-rule="evenodd" clip-rule="evenodd" d="M24.537 5.1738C22.0608 2.6898 18.6396 1.1598 14.8557 1.1598C11.0712 1.1598 7.65 2.6898 5.1738 5.1738C2.6901 7.6497 1.1598 11.0715 1.1598 14.8551C1.1598 18.639 2.6901 22.0611 5.1738 24.5367C7.65 27.021 11.0712 28.5507 14.8557 28.5507C18.6396 28.5507 22.0608 27.021 24.537 24.5367C27.021 22.0611 28.551 18.639 28.551 14.8551C28.551 11.0715 27.021 7.6497 24.537 5.1738ZM14.8557 0C18.96 0 22.6698 1.6614 25.3596 4.3512C28.0494 7.041 29.7108 10.7508 29.7108 14.8551C29.7108 18.9597 28.0494 22.6695 25.3596 25.3593C22.6698 28.0491 18.96 29.7108 14.8557 29.7108C10.7508 29.7108 7.0413 28.0491 4.3518 25.3593C1.6614 22.6695 0 18.9597 0 14.8551C0 10.7508 1.6614 7.041 4.3518 4.3512C7.0413 1.6614 10.7508 0 14.8557 0Z" fill="white"/>
<path fill-rule="evenodd" clip-rule="evenodd" d="M9.92219 6.97559C9.05849 6.97559 8.35919 7.67489 8.35919 8.53859C8.35919 9.40229 9.05849 10.1016 9.92219 10.1016C10.7859 10.1016 11.4849 9.40229 11.4849 8.53859C11.4849 7.67489 10.7859 6.97559 9.92219 6.97559ZM21.693 14.1897C21.4872 12.495 20.7144 11.4423 18.4275 11.4423C17.0865 11.4423 16.1817 11.9358 15.8034 12.6516H15.7623V11.4423H13.2696V20.3835H15.8775V15.9501C15.8775 14.7816 16.1076 13.6551 17.5395 13.6551C18.9783 13.6551 19.0851 14.9874 19.0851 16.032V20.3835H21.7668V15.4728C21.7668 15.012 21.7419 14.5845 21.693 14.1897ZM8.35919 13.8195V20.3835H11.4849V11.4423H8.35919V13.8195Z" fill="white"/>
</g>
</svg>
