<svg width="200" height="53" viewBox="0 0 200 53" fill="none" xmlns="http://www.w3.org/2000/svg">
<path d="M45.3036 52.9069L7.36437 52.8785C3.166 52.8745 -0.00404471 49.417 3.87356e-06 45.2186L0.0283438 7.27935C0.0323924 3.08502 3.2996 -0.00404461 7.49798 3.97495e-06L45.4372 0.028344C49.6356 0.0323926 52.9433 3.17814 52.9393 7.37247L52.9109 45.3117C52.9069 49.5101 49.502 52.9069 45.3036 52.9069Z" fill="#00B0AE"/>
<path d="M48.4495 16.4939C49.2228 16.4939 49.7896 16.8987 49.7896 17.7611V34.9595C49.7896 35.3036 49.66 35.6032 49.4009 35.8623C49.1418 36.1214 48.8827 36.251 48.6276 36.2469L36.4333 36.2833L36.4414 48.2429C36.4414 48.587 36.3118 48.8866 36.0527 49.1457C35.7936 49.4048 35.5345 49.5344 35.2795 49.5303L17.7977 49.425C17.5386 49.425 17.2835 49.2955 17.0244 49.0364C16.7653 48.7773 16.6357 48.4777 16.6398 48.1335V36.2469L4.54667 36.2226C4.28756 36.2226 4.03249 36.0931 3.77338 35.834C3.51427 35.5748 3.38472 35.2752 3.38876 34.9311V17.7651C3.38876 16.9068 3.77743 16.4736 4.55072 16.4736H16.6438L16.6114 4.25906C16.6114 3.40077 16.9718 3.16191 17.745 3.16191L35.3402 3.15381C36.1135 3.15381 36.5102 3.33195 36.5102 4.19023L36.5467 16.4291L48.4495 16.4939Z" fill="white"/>
<path d="M34.919 20.4981C34.919 20.4981 33.9311 21.1337 33.5951 21.3321C33.0607 21.6438 32.2591 22.1053 32.2591 22.1053C32.2591 22.1053 28.9919 18.5426 23.3239 20.8705C22.0809 21.3807 19.5668 23.2228 20.4089 25.2713C21.1619 27.1053 23.251 26.9798 30.4858 23.9839C30.9109 23.8058 31.3279 23.6114 31.7328 23.3928C33.2186 22.5952 36.7975 20.6357 39.5222 17.9798L39.9797 19.0284C39.9797 19.0284 33.0971 26.9393 23.6801 29.3604C22.421 29.6154 19.1619 29.9636 17.8178 26.8908C17.2996 25.7045 17.2874 24.3523 17.7166 23.1337C18.3643 21.2916 20.1498 18.5426 25.0486 17.5224C24.9352 17.5264 31.5101 16.2147 34.919 20.4981Z" fill="#00B0AE"/>
<path d="M32.9839 26.1296C32.9839 26.1296 34.0082 25.4292 34.5952 24.9515C35.0284 24.6033 36.3037 23.575 36.3037 23.575C36.3037 23.575 38.9353 33.9353 24.3199 42.1984L23.0122 41.498C23.0122 41.5021 33.9474 34.8745 32.9839 26.1296Z" fill="#00B0AE"/>
<path d="M22.9231 17.838C22.9231 17.838 30.4211 12.4332 36.5425 19.3927C36.5425 19.3927 37.5223 18.6842 37.8502 18.4372C38.1822 18.1903 39.1741 17.4129 39.1741 17.4129C39.1741 17.4129 37.7328 15.3927 35.1903 14.1336C31.7854 12.4413 26.3684 12.8907 22.9231 17.838Z" fill="#00B0AE"/>
<path d="M38.0526 22.0404L40.3036 19.8623C40.3036 19.8623 45.0769 31.9068 25.9554 42.9392C25.9554 42.9594 25.0283 42.5424 25.0283 42.5424C33.3117 37.5141 39.7409 30.9433 38.0526 22.0404Z" fill="#00B0AE"/>
<path d="M21.259 15.5831C22.8689 15.5831 24.174 14.278 24.174 12.6682C24.174 11.0582 22.8689 9.75317 21.259 9.75317C19.6491 9.75317 18.344 11.0582 18.344 12.6682C18.344 14.278 19.6491 15.5831 21.259 15.5831Z" fill="#00B0AE"/>
<path d="M19.494 16.8706C19.494 16.8706 18.413 16.7208 16.4373 17.6601C16.4373 17.6601 12.8058 18.9556 12.4252 23.1904C12.2632 25.0001 12.2632 34.3564 22.3928 41.1296C22.7369 41.0446 25.4454 38.7167 25.4454 38.7167C25.4454 38.7167 13.3766 32.4495 14.8746 21.9475C15.3402 18.6681 18.328 17.2188 19.494 16.8706Z" fill="#00B0AE"/>
<path d="M30.8907 21.8423C24.8624 25.2512 22.583 24.2471 21.8988 22.9718C21.9029 22.984 21.911 22.9921 21.9069 23.0042C20.9272 25.0933 22.7652 25.6115 24.9919 25.1297C27.5952 24.567 31.5668 22.401 31.5668 22.401C31.5668 22.401 30.9474 21.8625 30.8907 21.8423Z" fill="#00B0AE"/>
<path d="M76.7611 7.86645L77.9757 9.89074H80.3158L78.0526 6.47778H75.2024L72.9393 9.89074H75.2794L76.5263 7.81382H76.7247L76.7611 7.86645Z" fill="#00B0AE"/>
<path d="M140.692 7.86645L141.907 9.89074H144.247L141.984 6.47778H139.134L136.87 9.89074H139.211L140.462 7.81382H140.66L140.692 7.86645Z" fill="#00B0AE"/>
<path fill-rule="evenodd" clip-rule="evenodd" d="M67.0121 18.4736V18.1861L67.1053 18.174C68.6802 17.9472 69.7773 16.6031 69.7773 14.9068C69.7773 12.5383 68.166 11.1213 65.4656 11.1213H58.8785V26.5141H65.6964C68.5506 26.5141 70.3968 24.7732 70.3968 22.0809C70.3968 20.1132 68.9595 18.5343 67.1215 18.4817L67.0121 18.4736ZM62.664 14.0485H64.3806C65.4453 14.0485 66.1053 14.6841 66.1053 15.7043C66.1053 16.7165 65.4049 17.3723 64.3239 17.3723H62.664V14.0485ZM62.664 23.5829H64.4858C65.7935 23.5829 66.5425 22.8825 66.5425 21.6558C66.5425 20.4817 65.7854 19.7813 64.5142 19.7813H62.664V23.5829Z" fill="#00B0AE"/>
<path d="M76.6356 28.1699C75.7085 28.1699 74.9838 28.8946 74.9838 29.8177C74.9838 30.7448 75.7085 31.4736 76.6356 31.4736C77.5627 31.4736 78.2874 30.7448 78.2874 29.8177C78.2874 28.8906 77.5627 28.1699 76.6356 28.1699Z" fill="#00B0AE"/>
<path d="M75.7247 20.3563H80.9879V17.2875H75.7247V14.5466H81.3361V11.1174H71.9352V26.5142H81.3361V23.085H75.7247V20.3563Z" fill="#00B0AE"/>
<path d="M83.4291 11.1174V26.5142H86.9878V18.2915H87.2348L92.5344 26.5142H95.4332V11.1174H91.8745V19.2146H91.6316L91.5992 19.162L86.3684 11.1174H83.4291Z" fill="#00B0AE"/>
<path d="M101.332 11.1174H97.5425V26.5142H101.332V20.4737H106.352V26.5142H110.138V11.1174H106.352V17.0486H101.332V11.1174Z" fill="#00B0AE"/>
<path d="M121.846 22.2956L119.68 11.1174H115.304L119.385 26.5142H124.413L128.49 11.1174H124.304L122.121 22.3846H121.862L121.846 22.2956Z" fill="#00B0AE"/>
<path d="M133.757 11.1174H129.972V26.5101H133.757V11.1174Z" fill="#00B0AE"/>
<path d="M140.567 28.1699C139.64 28.1699 138.915 28.8946 138.915 29.8177C138.915 30.7448 139.64 31.4736 140.567 31.4736C141.494 31.4736 142.219 30.7448 142.219 29.8177C142.223 28.8906 141.494 28.1699 140.567 28.1699Z" fill="#00B0AE"/>
<path d="M139.656 20.3563H144.919V17.2875H139.656V14.5466H145.267V11.1174H135.87V26.5142H145.267V23.085H139.656V20.3563Z" fill="#00B0AE"/>
<path d="M147.356 11.1174V26.5142H150.919V18.2915H151.166L156.466 26.5142H159.364V11.1174H155.806V19.2146H155.563L155.53 19.162L150.3 11.1174H147.356Z" fill="#00B0AE"/>
<path d="M168.372 14.8259V26.5142H172.158V11.1174H168.3L164.951 13.6802V17.247L168.15 14.8259H168.372Z" fill="#00B0AE"/>
<path fill-rule="evenodd" clip-rule="evenodd" d="M174.887 16.2591C174.887 13.0324 177.227 10.6882 180.453 10.6882C182.34 10.6882 183.935 11.4534 184.947 12.8502C185.996 14.2874 186.551 16.3522 186.551 18.8137C186.551 23.8299 184.227 26.9473 180.49 26.9473C177.709 26.9473 175.449 25.1133 175.069 22.5668H178.765C178.992 23.2429 179.717 23.7044 180.559 23.7044C181.097 23.7044 181.587 23.4818 181.976 23.0688C182.737 22.255 183.081 20.749 182.947 18.834L182.939 18.7328H182.68L182.656 18.8137C182.219 20.3846 180.996 21.2874 179.304 21.2874C176.785 21.2874 174.887 19.1255 174.887 16.2591ZM178.53 16.1133C178.53 17.336 179.401 18.2915 180.51 18.2915C181.603 18.2915 182.462 17.336 182.462 16.1133C182.462 14.8826 181.603 13.915 180.51 13.915C179.401 13.915 178.53 14.8826 178.53 16.1133Z" fill="#00B0AE"/>
<path fill-rule="evenodd" clip-rule="evenodd" d="M178.64 16.1174C178.64 14.9393 179.47 14.0283 180.51 14.0283C181.538 14.0283 182.352 14.9352 182.352 16.1174C182.352 17.2834 181.543 18.1822 180.51 18.1822C179.462 18.1822 178.64 17.2874 178.64 16.1174ZM178.749 16.1174C178.749 17.2146 179.522 18.0729 180.51 18.0729C181.482 18.0729 182.243 17.2146 182.243 16.1174C182.243 15.0081 181.482 14.1376 180.51 14.1376C179.522 14.1376 178.749 15.0081 178.749 16.1174Z" fill="white"/>
<path fill-rule="evenodd" clip-rule="evenodd" d="M178.53 16.1173C178.53 14.8866 179.401 13.9189 180.51 13.9189C181.603 13.9189 182.462 14.8825 182.462 16.1173C182.462 17.34 181.603 18.2955 180.51 18.2955C179.401 18.2955 178.53 17.34 178.53 16.1173ZM178.64 16.1173C178.64 17.2833 179.462 18.1821 180.51 18.1821C181.538 18.1821 182.352 17.2833 182.352 16.1173C182.352 14.9392 181.543 14.0283 180.51 14.0283C179.47 14.0283 178.64 14.9392 178.64 16.1173Z" fill="white"/>
<path fill-rule="evenodd" clip-rule="evenodd" d="M193.822 10.6882C195.709 10.6882 197.304 11.4575 198.316 12.8502C199.364 14.2874 199.919 16.3482 199.919 18.8137C199.919 23.8299 197.595 26.9473 193.858 26.9473C191.077 26.9473 188.818 25.1133 188.437 22.5668H192.134C192.36 23.2429 193.085 23.7044 193.927 23.7044C194.466 23.7044 194.955 23.4818 195.344 23.0688C196.105 22.255 196.449 20.749 196.316 18.834L196.308 18.7328H196.049L196.024 18.8137C195.587 20.3846 194.364 21.2874 192.672 21.2874C190.154 21.2874 188.255 19.1255 188.255 16.2591C188.255 13.0324 190.595 10.6882 193.822 10.6882ZM191.899 16.1133C191.899 17.336 192.769 18.2915 193.879 18.2915C194.976 18.2915 195.83 17.336 195.83 16.1133C195.83 14.8826 194.972 13.915 193.879 13.915C192.769 13.915 191.899 14.8826 191.899 16.1133Z" fill="#00B0AE"/>
<path fill-rule="evenodd" clip-rule="evenodd" d="M192.008 16.1174C192.008 14.9393 192.838 14.0283 193.879 14.0283C194.911 14.0283 195.721 14.9352 195.721 16.1174C195.721 17.2834 194.911 18.1822 193.879 18.1822C192.83 18.1822 192.008 17.2874 192.008 16.1174ZM192.117 16.1174C192.117 17.2146 192.891 18.0729 193.879 18.0729C194.85 18.0729 195.611 17.2146 195.611 16.1174C195.611 15.0081 194.85 14.1376 193.879 14.1376C192.891 14.1376 192.117 15.0081 192.117 16.1174Z" fill="white"/>
<path fill-rule="evenodd" clip-rule="evenodd" d="M191.899 16.1173C191.899 14.8866 192.769 13.9189 193.879 13.9189C194.976 13.9189 195.83 14.8825 195.83 16.1173C195.83 17.34 194.972 18.2955 193.879 18.2955C192.769 18.2955 191.899 17.34 191.899 16.1173ZM192.008 16.1173C192.008 17.2833 192.83 18.1821 193.879 18.1821C194.911 18.1821 195.721 17.2833 195.721 16.1173C195.721 14.9392 194.911 14.0283 193.879 14.0283C192.838 14.0283 192.008 14.9392 192.008 16.1173Z" fill="white"/>
<path d="M60.3765 40.7126L61.2226 37.3847H62.4575L60.9514 42.1093L60.9473 44.7976H59.7975L59.8016 42.1093L58.2996 37.3806H59.5344L60.3765 40.7126Z" fill="#72BF44"/>
<path fill-rule="evenodd" clip-rule="evenodd" d="M64.9028 41.5384L64.8988 44.8016L66.3522 44.7975C67.0364 44.7975 67.5749 44.5222 67.9635 43.9676C68.3562 43.4129 68.5506 42.6518 68.5506 41.6761V40.4737C68.5465 39.5182 68.3481 38.7652 67.9595 38.2146C67.5708 37.664 67.0485 37.3887 66.3927 37.3887H64.9068L64.9028 40.6073H64.2996V41.5384H64.9028ZM66.0364 41.5384H66.6396L66.6356 40.6113H66.0324L66.0364 38.6397H66.4494C66.8016 38.6518 67.0526 38.7976 67.1983 39.0688C67.3441 39.3441 67.417 39.8259 67.417 40.5182V41.7894C67.4048 42.4291 67.3279 42.8785 67.1822 43.1457C67.0324 43.4129 66.7813 43.5506 66.4251 43.5587H66.0324L66.0364 41.5384Z" fill="#72BF44"/>
<path fill-rule="evenodd" clip-rule="evenodd" d="M72.7895 35.3481H71.5628L70.8057 36.9271H71.7166L72.7895 35.3481ZM73.0122 38.5506V37.3967L71.8786 37.3846L71.8745 42.3724C71.8583 43.2307 71.6235 43.6558 71.166 43.6558C70.7045 43.6558 70.4697 43.2266 70.4535 42.3724L70.4575 37.3846H69.3158L69.3118 42.3076C69.3158 43.1173 69.4859 43.7489 69.8138 44.2105C70.1417 44.672 70.5911 44.9028 71.162 44.9028C71.7247 44.9028 72.1741 44.672 72.5021 44.2105C72.83 43.7489 72.996 43.1173 73.0041 42.3076L73.0081 39.3562C73.4737 39.3279 73.8097 39.1255 74.0162 38.7571C74.2267 38.3886 74.332 37.7935 74.332 36.9797H73.6235C73.6235 37.4372 73.6033 37.7571 73.5668 37.9433C73.5263 38.1295 73.4656 38.2712 73.3806 38.3684C73.2956 38.4656 73.1701 38.5263 73.0122 38.5506Z" fill="#72BF44"/>
<path d="M78.1012 42.3441C78.0729 43.1902 77.8907 43.8299 77.5587 44.2631C77.2267 44.6963 76.7571 44.9149 76.1538 44.9149C75.5182 44.9149 75.0324 44.6396 74.6963 44.0849C74.3603 43.5343 74.1903 42.7449 74.1903 41.7246V40.4777C74.1903 39.4615 74.3684 38.6761 74.7166 38.1255C75.0688 37.5749 75.5546 37.2996 76.1741 37.2996C76.7854 37.2996 77.251 37.5263 77.5668 37.9797C77.8826 38.4332 78.0648 39.0809 78.1053 39.923H76.9676C76.9595 39.4008 76.8988 39.0405 76.7854 38.8421C76.6721 38.6437 76.4696 38.5425 76.17 38.5425C75.8664 38.5425 75.6518 38.6801 75.5263 38.9635C75.4008 39.2429 75.332 39.7044 75.3239 40.3441V41.7449C75.3239 42.4817 75.3846 42.9878 75.5101 43.2631C75.6356 43.5384 75.8502 43.676 76.1498 43.676C76.4494 43.676 76.6518 43.5789 76.7652 43.3886C76.8785 43.1983 76.9433 42.8501 76.9595 42.3481L78.1012 42.3441Z" fill="#72BF44"/>
<path d="M84.5506 44.8219H83.4211L83.4251 41.6518H81.753L81.749 44.8219H80.6154L80.6235 37.4089H81.7571L81.753 40.4089H83.4251L83.4292 37.4089H84.5587L84.5506 44.8219Z" fill="#72BF44"/>
<path fill-rule="evenodd" clip-rule="evenodd" d="M88.0081 37.0043H87.0891L86.0283 35.4253H87.251L88.0081 37.0043ZM88.2105 43.3078H86.664L86.3603 44.826H85.1619L86.9231 37.4172H87.9595L89.7166 44.8301H88.5061L88.2105 43.3078ZM87.9595 42.0608H86.9109L87.4372 39.4172L87.9595 42.0608Z" fill="#72BF44"/>
<path d="M94.166 44.8299H93.0324L91.3806 39.9676L91.3765 44.8299H90.2429L90.251 37.417H91.3846L93.0405 42.2874L93.0445 37.421H94.1741L94.166 44.8299Z" fill="#72BF44"/>
<path d="M98.8907 43.9959C98.6721 44.3076 98.4049 44.5424 98.085 44.7003C97.7652 44.8582 97.4211 44.9351 97.0405 44.9351C96.3968 44.9351 95.8947 44.6679 95.5385 44.1416C95.1822 43.6153 95 42.8461 94.9879 41.838V40.506C94.9879 39.4858 95.1579 38.7004 95.498 38.1457C95.8381 37.5911 96.3279 37.3198 96.9757 37.3198C97.583 37.3198 98.0445 37.5182 98.3522 37.915C98.6599 38.3117 98.8381 38.9352 98.8866 39.7854H97.7854C97.753 39.3117 97.6802 38.9919 97.5628 38.8218C97.4453 38.6518 97.2591 38.5627 97.0081 38.5627C96.7004 38.5627 96.4818 38.7085 96.3401 39.004C96.2024 39.2996 96.1296 39.7692 96.1215 40.4129V41.757C96.1215 42.4331 96.1984 42.923 96.3482 43.2307C96.502 43.5384 96.753 43.6922 97.1012 43.6922C97.3239 43.6922 97.5061 43.6315 97.6437 43.5141L97.7449 43.421V42.0606H96.9514V40.9311H98.8826L98.8907 43.9959Z" fill="#72BF44"/>
<path fill-rule="evenodd" clip-rule="evenodd" d="M101.632 41.5789L101.628 44.8421L103.081 44.838C103.765 44.838 104.304 44.5627 104.692 44.0081C105.085 43.4534 105.279 42.6923 105.279 41.7166V40.5141C105.275 39.5588 105.077 38.8057 104.688 38.2551C104.3 37.7045 103.777 37.4292 103.121 37.4292H101.636L101.632 40.6477H101.028V41.5789H101.632ZM102.765 41.5789H103.368L103.364 40.6518H102.761L102.765 38.6802H103.178C103.53 38.6924 103.781 38.8381 103.927 39.1094C104.073 39.3847 104.146 39.8664 104.146 40.5587V41.8299C104.134 42.4696 104.057 42.919 103.911 43.1862C103.761 43.4534 103.51 43.5911 103.154 43.5992H102.761L102.765 41.5789Z" fill="#72BF44"/>
<path fill-rule="evenodd" clip-rule="evenodd" d="M106.348 36.3604H106.955L106.413 34.9758H105.571L106.348 36.3604ZM107.138 43.3321H108.684L108.98 44.8543H110.19L108.433 37.4414H107.397L105.636 44.8503H106.834L107.138 43.3321ZM109.17 37.0406H108.393L107.939 36.3969L107.482 37.0366L106.704 37.0325L107.652 35.8665H108.231L109.17 37.0406ZM108.437 42.0811H107.389L107.915 39.4374L108.437 42.0811Z" fill="#72BF44"/>
<path d="M114.312 37.4413L114.308 42.5748C114.304 43.3441 114.142 43.9352 113.826 44.3441C113.51 44.753 113.057 44.9554 112.466 44.9554C111.862 44.9554 111.405 44.7489 111.089 44.3319C110.773 43.919 110.615 43.3198 110.615 42.5343L110.619 37.4373H111.761L111.757 42.5384C111.757 42.9594 111.806 43.259 111.911 43.4412C112.012 43.6234 112.198 43.7125 112.47 43.7125C112.741 43.7125 112.923 43.6234 113.024 43.4453C113.126 43.2671 113.178 42.9756 113.178 42.5667L113.182 37.4413H114.312Z" fill="#72BF44"/>
<path d="M118.891 42.2835H117.008V41.0811H118.891V42.2835Z" fill="#72BF44"/>
<path d="M125.591 44.8664H124.458L122.806 40.0042L122.802 44.8664H121.668L121.676 37.4536H122.81L124.466 42.3239L124.47 37.4577H125.599L125.591 44.8664Z" fill="#72BF44"/>
<path d="M130.433 44.8705H129.304L129.308 41.7004H127.636L127.632 44.8705H126.498L126.506 37.4575H127.64L127.636 40.4575H129.308L129.312 37.4575H130.441L130.433 44.8705Z" fill="#72BF44"/>
<path d="M132.526 44.8744H131.393L131.401 37.4614H132.534L132.526 44.8744Z" fill="#72BF44"/>
<path fill-rule="evenodd" clip-rule="evenodd" d="M136.514 36.8868V36.9475H135.664L135.182 36.2147L134.7 36.9475L133.866 36.9435V36.8625L134.87 35.4617H135.494L136.514 36.8868ZM136.381 41.6722H134.615L134.611 43.6357H136.7V44.8786L133.478 44.8746L133.486 37.4617L136.7 37.4657V38.7127H134.619V40.4657H136.385L136.381 41.6722ZM135.636 45.5102C135.518 45.3766 135.364 45.3078 135.178 45.3078C134.992 45.3078 134.842 45.3766 134.721 45.5102C134.607 45.6438 134.547 45.8139 134.547 46.0163C134.547 46.2187 134.603 46.3888 134.721 46.5224C134.838 46.656 134.988 46.7248 135.174 46.7248C135.36 46.7248 135.514 46.656 135.632 46.5224C135.749 46.3888 135.81 46.2187 135.81 46.0163C135.81 45.8139 135.753 45.6438 135.636 45.5102Z" fill="#72BF44"/>
<path d="M138.838 37.4696L139.891 42.8299L140.951 37.4696H142.433L142.425 44.8826H141.287V42.8785L141.397 39.7895L140.271 44.8826H139.502L138.385 39.7854L138.486 42.8745V44.8785H137.352L137.36 37.4656L138.838 37.4696Z" fill="#72BF44"/>
<path d="M146.644 37.4777L147.696 42.838L148.757 37.4777H150.239L150.231 44.8906H149.093V42.8865L149.202 39.7975L148.077 44.8906H147.308L146.19 39.7935L146.292 42.8825V44.8865H145.158L145.166 37.4736L146.644 37.4777Z" fill="#72BF44"/>
<path fill-rule="evenodd" clip-rule="evenodd" d="M151.551 36.4129H152.158L151.615 35.0283H150.773L151.551 36.4129ZM152.04 44.8988L152.344 43.3805H153.891L154.186 44.9028H155.397L153.64 37.4899H152.603L150.842 44.8988H152.04ZM154.377 37.0931H153.599L153.146 36.4534L152.688 37.0931L151.911 37.089L152.858 35.9231H153.437L154.377 37.0931ZM153.64 42.1336H152.591L153.117 39.4899L153.64 42.1336Z" fill="#72BF44"/>
<path d="M159.514 37.4899L159.51 42.6235C159.506 43.3927 159.344 43.9838 159.028 44.3927C158.713 44.8016 158.259 45.004 157.668 45.004C157.065 45.004 156.607 44.7975 156.291 44.3805C155.976 43.9676 155.818 43.3684 155.818 42.583L155.822 37.4858H156.964L156.96 42.587C156.96 43.0081 157.008 43.3077 157.113 43.4898C157.215 43.668 157.401 43.7611 157.672 43.7611C157.943 43.7611 158.126 43.672 158.227 43.4939C158.328 43.3158 158.381 43.0243 158.381 42.6154L158.385 37.4899H159.514Z" fill="#72BF44"/>
<path d="M165.992 42.4412C165.964 43.2874 165.781 43.9271 165.449 44.3603C165.117 44.7934 164.648 45.0121 164.045 45.0121C163.409 45.0121 162.923 44.7327 162.587 44.1821C162.251 43.6315 162.081 42.842 162.081 41.8218V40.5748C162.081 39.5587 162.259 38.7732 162.607 38.2226C162.96 37.672 163.445 37.3967 164.065 37.3967C164.676 37.3967 165.142 37.6234 165.458 38.0728C165.773 38.5263 165.955 39.1741 165.996 40.0202H164.858C164.85 39.4979 164.789 39.1376 164.676 38.9392C164.563 38.7409 164.36 38.6396 164.061 38.6396C163.757 38.6396 163.543 38.7773 163.417 39.0607C163.292 39.34 163.223 39.8016 163.215 40.4413V41.842C163.215 42.5789 163.275 43.0849 163.401 43.3603C163.526 43.6356 163.741 43.7732 164.041 43.7732C164.34 43.7732 164.543 43.676 164.656 43.4858C164.769 43.2955 164.834 42.9473 164.85 42.4453L165.992 42.4412Z" fill="#72BF44"/>
<path d="M170.344 37.5021L170.34 42.6357C170.336 43.4049 170.174 43.996 169.858 44.4049C169.543 44.8138 169.089 45.0162 168.498 45.0162C167.895 45.0162 167.437 44.8097 167.121 44.3927C166.806 43.9798 166.648 43.3806 166.648 42.5952L166.652 37.498H167.794L167.789 42.5992C167.789 43.0203 167.838 43.3199 167.943 43.5021C168.045 43.6842 168.231 43.7733 168.502 43.7733C168.773 43.7733 168.955 43.6842 169.057 43.5061C169.158 43.328 169.211 43.0365 169.211 42.6276L169.215 37.5021H170.344Z" fill="#72BF44"/>
<path fill-rule="evenodd" clip-rule="evenodd" d="M174.47 37.0083V36.9476L173.449 35.5225H172.826L171.822 36.9233V37.0042L172.656 37.0083L173.138 36.2755L173.619 37.0083H174.47ZM174.615 44.1985C174.972 43.6479 175.15 42.8787 175.15 41.8827L175.154 40.6114C175.15 39.5953 174.968 38.8099 174.607 38.2472C174.251 37.6885 173.757 37.4051 173.134 37.4051C172.498 37.4051 172 37.6925 171.644 38.2634C171.287 38.8342 171.105 39.6318 171.105 40.6479V41.9151C171.109 42.8948 171.292 43.656 171.652 44.2025C172.008 44.7451 172.502 45.0204 173.134 45.0204C173.765 45.0244 174.259 44.7491 174.615 44.1985ZM174.012 40.6398C174.012 39.9719 173.943 39.4739 173.798 39.15C173.656 38.8221 173.429 38.6601 173.126 38.6601C172.826 38.6601 172.603 38.818 172.458 39.1297C172.312 39.4455 172.239 39.9233 172.231 40.5629V41.8827C172.231 42.5305 172.304 43.0082 172.449 43.3159C172.595 43.6236 172.822 43.7774 173.126 43.7774C173.421 43.7774 173.64 43.6276 173.785 43.328C173.931 43.0285 174.004 42.5629 174.008 41.9313L174.012 40.6398ZM173.595 45.6034C173.478 45.4697 173.324 45.4009 173.138 45.4009C172.951 45.4009 172.802 45.4697 172.688 45.6034C172.571 45.737 172.51 45.907 172.51 46.1094C172.51 46.3119 172.567 46.4819 172.684 46.6155C172.802 46.7491 172.951 46.8179 173.138 46.8179C173.324 46.8179 173.482 46.7491 173.595 46.6155C173.709 46.4819 173.769 46.3119 173.769 46.1094C173.769 45.907 173.713 45.737 173.595 45.6034Z" fill="#72BF44"/>
<path d="M179.765 42.4575C179.737 43.3037 179.555 43.9434 179.223 44.3766C178.891 44.8098 178.421 45.0284 177.818 45.0284C177.182 45.0284 176.696 44.7531 176.36 44.1984C176.024 43.6478 175.854 42.8583 175.854 41.8381V40.5911C175.854 39.575 176.032 38.7896 176.381 38.239C176.733 37.6883 177.219 37.4131 177.838 37.4131C178.449 37.4131 178.915 37.6398 179.231 38.0932C179.547 38.5466 179.729 39.1945 179.769 40.0366H178.632C178.623 39.5143 178.563 39.154 178.449 38.9556C178.336 38.7572 178.134 38.656 177.834 38.656C177.53 38.656 177.316 38.7937 177.19 39.0771C177.065 39.3564 176.996 39.8179 176.988 40.4576V41.8583C176.988 42.5952 177.049 43.1013 177.174 43.3766C177.3 43.6519 177.514 43.7895 177.814 43.7895C178.113 43.7895 178.316 43.6924 178.429 43.5021C178.543 43.3118 178.607 42.9636 178.623 42.4616L179.765 42.4575Z" fill="#72BF44"/>
<path d="M184.652 42.9879C184.652 42.6842 184.595 42.4575 184.478 42.3037C184.36 42.1498 184.15 41.9879 183.838 41.8219C183.275 41.5385 182.87 41.2105 182.624 40.83C182.377 40.4535 182.255 40.0041 182.255 39.49C182.255 38.8665 182.425 38.3645 182.761 37.9879C183.097 37.6114 183.522 37.4211 184.041 37.4211C184.385 37.4211 184.692 37.5183 184.96 37.7086C185.231 37.8989 185.437 38.1701 185.583 38.5224C185.729 38.8705 185.802 39.2713 185.798 39.7126H184.668C184.668 39.3685 184.611 39.1013 184.502 38.9191C184.389 38.7369 184.231 38.6479 184.02 38.6479C183.822 38.6479 183.668 38.7248 183.559 38.8786C183.449 39.0325 183.393 39.239 183.393 39.5021C183.393 39.7045 183.453 39.8908 183.579 40.0568C183.7 40.2228 183.919 40.3928 184.235 40.5709C184.781 40.834 185.178 41.1539 185.425 41.5344C185.672 41.915 185.798 42.3968 185.794 42.9838C185.794 43.6275 185.636 44.1336 185.324 44.4939C185.012 44.8583 184.591 45.0364 184.057 45.0364C183.696 45.0364 183.364 44.9352 183.065 44.7409C182.765 44.5425 182.534 44.2632 182.368 43.8947C182.198 43.5263 182.117 43.0972 182.117 42.5952H183.255C183.255 43.0243 183.316 43.332 183.441 43.5263C183.567 43.7207 183.773 43.8178 184.057 43.8178C184.453 43.8178 184.652 43.5385 184.652 42.9879Z" fill="#72BF44"/>
<path fill-rule="evenodd" clip-rule="evenodd" d="M190.846 35.0649H190L189.457 36.4496H190.061L190.846 35.0649ZM188.773 35.9556H188.19L187.251 37.1176L188.028 37.1216L188.482 36.4819L188.935 37.1257H189.717L188.773 35.9556ZM189.96 44.2147C190.316 43.6641 190.494 42.8949 190.494 41.8989L190.498 40.6317C190.494 39.6155 190.312 38.8301 189.951 38.2674C189.595 37.7046 189.101 37.4212 188.478 37.4212C187.842 37.4212 187.344 37.7087 186.988 38.2795C186.632 38.8504 186.449 39.6479 186.449 40.6641V41.9313C186.453 42.9111 186.636 43.6722 186.996 44.2187C187.352 44.7613 187.846 45.0366 188.478 45.0366C189.109 45.0366 189.603 44.7653 189.96 44.2147ZM189.36 40.656C189.36 39.988 189.292 39.49 189.146 39.1662C189 38.8423 188.777 38.6763 188.474 38.6763C188.174 38.6763 187.951 38.8342 187.806 39.1459C187.66 39.4617 187.587 39.9394 187.579 40.5791V41.8989C187.579 42.5467 187.652 43.0244 187.798 43.3321C187.943 43.6398 188.17 43.7936 188.474 43.7936C188.769 43.7936 188.988 43.6438 189.134 43.3443C189.279 43.0447 189.352 42.5791 189.356 41.9475L189.36 40.656Z" fill="#72BF44"/>
<path d="M195.227 44.9434H194.093L192.441 40.0811L192.437 44.9434H191.304L191.312 37.5305H192.445L194.101 42.4009L194.105 37.5346H195.235L195.227 44.9434Z" fill="#72BF44"/>
<path d="M199.955 44.1094C199.737 44.4211 199.47 44.6559 199.15 44.8138C198.83 44.9717 198.486 45.0487 198.105 45.0487C197.462 45.0487 196.959 44.7814 196.603 44.2551C196.247 43.7288 196.065 42.9596 196.053 41.9515V40.6195C196.053 39.5993 196.223 38.8099 196.563 38.2593C196.903 37.7087 197.393 37.4333 198.04 37.4333C198.648 37.4333 199.109 37.6317 199.417 38.0285C199.725 38.4253 199.903 39.0487 199.951 39.8989H198.85C198.818 39.4253 198.745 39.1054 198.628 38.9354C198.51 38.7653 198.324 38.6763 198.073 38.6763C197.765 38.6763 197.547 38.822 197.405 39.1176C197.267 39.4131 197.194 39.8827 197.186 40.5264V41.8705C197.186 42.5466 197.263 43.0365 197.413 43.3442C197.567 43.6519 197.818 43.8057 198.166 43.8057C198.389 43.8057 198.571 43.7491 198.708 43.6276L198.81 43.5345V42.1742H198.016V41.0446H199.947L199.955 44.1094Z" fill="#72BF44"/>
</svg>
