<svg width="16" height="12" viewBox="0 0 16 12" fill="none" xmlns="http://www.w3.org/2000/svg">
<path fill-rule="evenodd" clip-rule="evenodd" d="M15 0H1C0.729165 0 0.494793 0.098958 0.296875 0.296876C0.0989573 0.494792 0 0.729166 0 1V2.6875L8 5.875L16 2.6875V1C16 0.729166 15.901 0.494792 15.7031 0.296876C15.5052 0.098958 15.2708 0 15 0ZM0 4.3125V11C0 11.2708 0.0989573 11.5052 0.296875 11.7031C0.494793 11.901 0.729165 12 1 12H15C15.2708 12 15.5052 11.901 15.7031 11.7031C15.901 11.5052 16 11.2708 16 11V4.3125L8 7.5L0 4.3125Z" fill="#00B2BD"/>
</svg>
