<svg width="20" height="16" viewBox="0 0 20 16" fill="none" xmlns="http://www.w3.org/2000/svg">
<path fill-rule="evenodd" clip-rule="evenodd" d="M18.75 0H1.25C0.911457 0 0.618491 0.126123 0.371094 0.378371C0.123697 0.630617 0 0.929329 0 1.27451V3.42525L10 7.48775L20 3.42525V1.27451C20 0.929329 19.8763 0.630617 19.6289 0.378371C19.3815 0.126123 19.0885 0 18.75 0ZM0 5.49625V14.0195C0 14.3647 0.123697 14.6634 0.371094 14.9157C0.618491 15.1679 0.911457 15.294 1.25 15.294H18.75C19.0885 15.294 19.3815 15.1679 19.6289 14.9157C19.8763 14.6634 20 14.3647 20 14.0195V5.49625L10 9.55875L0 5.49625Z" fill="white"/>
</svg>
