<svg width="40" height="40" viewBox="0 0 40 40" fill="none" xmlns="http://www.w3.org/2000/svg">
<path fill-rule="evenodd" clip-rule="evenodd" d="M5.91667 5.91667C9.80557 1.9722 14.5 0 20 0C25.5 0 30.2083 1.95831 34.125 5.875C38.0417 9.79169 40 14.5 40 20C40 25.5 38.0417 30.2083 34.125 34.125C30.2083 38.0417 25.5 40 20 40C14.5 40 9.79168 38.0417 5.875 34.125C1.95831 30.2083 0 25.5 0 20C0 14.5 1.9722 9.80557 5.91667 5.91667ZM15.75 27.75C15.0833 28.3611 15.0694 28.9722 15.7083 29.5833C16.3472 30.1944 16.9722 30.1944 17.5833 29.5833L26.25 20.9167C26.5278 20.6944 26.6667 20.3889 26.6667 20C26.6667 19.6111 26.5278 19.3056 26.25 19.0833L17.5833 10.4167C16.9722 9.80555 16.3472 9.80555 15.7083 10.4167C15.0694 11.0278 15.0833 11.6389 15.75 12.25L23.4167 20L15.75 27.75Z" fill="#00B2BD"/>
</svg>
