<svg width="32" height="35" viewBox="0 0 32 35" fill="none" xmlns="http://www.w3.org/2000/svg">
<mask id="mask0" mask-type="alpha" maskUnits="userSpaceOnUse" x="0" y="0" width="32" height="31">
<rect width="32" height="31" fill="#C4C4C4"/>
</mask>
<g mask="url(#mask0)">
<path fill-rule="evenodd" clip-rule="evenodd" d="M15.9995 20.1762C15.974 20.1817 15.7003 19.9005 15.1782 19.3328C14.656 18.765 14.082 18.1418 13.456 17.463C12.8301 16.7842 12.2497 16.1624 11.7148 15.5974C11.18 15.0323 10.9098 14.7371 10.9043 14.7116C10.3411 13.9527 9.90083 13.2073 9.58346 12.4755C9.26609 11.7438 9.38491 11.1182 9.93993 10.5988L2.70162 2.79499C2.39958 3.12662 2.08549 3.77417 1.75932 4.73768C1.43315 5.70119 1.37989 6.97267 1.59954 8.55218C1.81918 10.1317 2.4574 12.0145 3.51419 14.2007C4.57099 16.3869 6.3568 18.8629 8.87167 21.6289C11.5014 24.5569 13.9074 26.6929 16.0899 28.037C18.2723 29.3811 20.1858 30.2497 21.8304 30.6428C23.4749 31.0358 24.8079 31.0959 25.8292 30.8229C26.8506 30.5499 27.5305 30.2704 27.869 29.9843L20.7865 22.3469C20.2515 22.8353 19.6256 22.8699 18.9087 22.4507C18.1919 22.0315 17.2222 21.2733 15.9995 20.1762ZM30.693 25.8169C30.693 25.8169 30.406 25.5052 29.8319 24.882C29.2579 24.2587 28.6242 23.575 27.9308 22.8307C27.2374 22.0865 26.6037 21.4027 26.0296 20.7794C25.4556 20.1562 25.1686 19.8446 25.1686 19.8446C24.9608 19.6226 24.6958 19.5062 24.3735 19.4955C24.0512 19.4848 23.7663 19.5861 23.5188 19.7993L21.3842 21.7784L28.4367 29.4622C28.4367 29.4622 28.7975 29.1246 29.519 28.4494C30.2405 27.7742 30.6013 27.4366 30.6013 27.4366C30.8488 27.2234 30.9778 26.9557 30.9885 26.6333C30.9992 26.311 30.9007 26.0389 30.693 25.8169ZM12.6804 8.08945L12.6722 8.05122C12.9197 7.83799 13.0488 7.57022 13.0595 7.24791C13.0702 6.9256 12.9717 6.65345 12.7639 6.43144C12.7639 6.43144 12.4678 6.10844 11.8755 5.46243C11.2833 4.81643 10.6327 4.1163 9.92381 3.36204C9.21492 2.60777 8.56436 1.90764 7.97209 1.26164C7.37983 0.615629 7.0837 0.292632 7.0837 0.292632C6.87595 0.070625 6.61093 -0.0457194 6.28861 -0.0564183C5.9663 -0.0671124 5.6814 0.0341552 5.43391 0.247381L3.29938 2.22643L10.5077 10.0767C10.5077 10.0767 10.8698 9.74552 11.5941 9.08309C12.3183 8.42066 12.6804 8.08945 12.6804 8.08945Z" fill="white"/>
</g>
</svg>
