<svg width="40" height="40" viewBox="0 0 40 40" fill="none" xmlns="http://www.w3.org/2000/svg">
<path fill-rule="evenodd" clip-rule="evenodd" d="M34.0833 5.91667C30.1944 1.9722 25.5 0 20 0C14.5 0 9.79169 1.95831 5.875 5.875C1.95831 9.79169 0 14.5 0 20C0 25.5 1.95831 30.2083 5.875 34.125C9.79169 38.0417 14.5 40 20 40C25.5 40 30.2083 38.0417 34.125 34.125C38.0417 30.2083 40 25.5 40 20C40 14.5 38.0278 9.80557 34.0833 5.91667ZM24.25 27.75C24.9167 28.3611 24.9306 28.9722 24.2917 29.5833C23.6528 30.1944 23.0278 30.1944 22.4167 29.5833L13.75 20.9167C13.4722 20.6944 13.3333 20.3889 13.3333 20C13.3333 19.6111 13.4722 19.3056 13.75 19.0833L22.4167 10.4167C23.0278 9.80555 23.6528 9.80555 24.2917 10.4167C24.9306 11.0278 24.9167 11.6389 24.25 12.25L16.5833 20L24.25 27.75Z" fill="#00B2BD"/>
</svg>
