<svg width="22" height="22" viewBox="0 0 22 22" fill="none" xmlns="http://www.w3.org/2000/svg">
<path fill-rule="evenodd" clip-rule="evenodd" d="M21.6563 0.147517C21.9264 0.343835 22.0368 0.605587 21.9877 0.932782L18.8453 19.7792C18.8044 20.0164 18.6734 20.2004 18.4525 20.3313C18.3379 20.3967 18.2111 20.4295 18.0719 20.4295C17.9819 20.4295 17.8837 20.409 17.7773 20.3681L11.3083 17.7301L7.65033 21.7423C7.50303 21.9141 7.31072 22 7.0734 22C6.95883 22 6.86472 21.9836 6.79107 21.9509C6.63559 21.8937 6.51284 21.7975 6.42282 21.6626C6.3328 21.5276 6.28779 21.3783 6.28779 21.2147V15.6688L0.493914 13.3007C0.191125 13.1862 0.0274578 12.9613 0.00290733 12.6259C-0.0216431 12.3069 0.109291 12.0656 0.395713 11.902L20.8216 0.122979C21.108 -0.0488006 21.3862 -0.0406213 21.6563 0.147517ZM17.4582 18.5399L20.171 2.307L2.56842 12.4541L6.69287 14.1351L17.2863 6.29468L11.4188 16.0737L17.4582 18.5399Z" fill="#00B0AE"/>
</svg>
