<svg width="5" height="9" viewBox="0 0 5 9" fill="none" xmlns="http://www.w3.org/2000/svg">
<g clip-path="url(#clip0)">
<path fill-rule="evenodd" clip-rule="evenodd" d="M0.651042 8.25521C0.598958 8.30729 0.520834 8.33333 0.416667 8.33333C0.295138 8.33333 0.195313 8.28993 0.117188 8.20312C0.0390621 8.11632 0 8.01215 0 7.89062V0.442708C0 0.32118 0.0390621 0.217015 0.117188 0.130208C0.195313 0.0434017 0.295138 0 0.416667 0C0.503473 0 0.572916 0.0260417 0.625 0.078125L0.703125 0.130208L4.76562 3.67187C4.92188 3.82812 5 3.99305 5 4.16667C5 4.34028 4.92188 4.50521 4.76562 4.66146L0.703125 8.20312L0.651042 8.25521Z" fill="#00B0AE"/>
</g>
<defs>
<clipPath id="clip0">
<rect width="5" height="8.33333" fill="white"/>
</clipPath>
</defs>
</svg>
