<svg width="14" height="23" viewBox="0 0 14 23" fill="none" xmlns="http://www.w3.org/2000/svg">
<rect opacity="0.01" x="-3" width="20" height="23" fill="white"/>
<path fill-rule="evenodd" clip-rule="evenodd" d="M7.85714 21.5893C8.14286 21.3036 8.28572 20.9643 8.28572 20.5714C8.28572 20.1786 8.14584 19.8423 7.86607 19.5625C7.58631 19.2827 7.25 19.1429 6.85714 19.1429C6.46428 19.1429 6.12798 19.2827 5.84822 19.5625C5.56845 19.8423 5.42857 20.1786 5.42857 20.5714C5.42857 20.9643 5.56845 21.3006 5.84822 21.5804C6.12798 21.8601 6.46428 22 6.85714 22C7.25 22 7.58333 21.8631 7.85714 21.5893ZM12 17.7143V5.14286C12 4.9881 11.9435 4.85417 11.8304 4.74107C11.7173 4.62798 11.5833 4.57143 11.4286 4.57143H2.28571C2.13095 4.57143 1.99702 4.62798 1.88393 4.74107C1.77083 4.85417 1.71429 4.9881 1.71429 5.14286V17.7143C1.71429 17.8691 1.77083 18.003 1.88393 18.1161C1.99702 18.2292 2.13095 18.2857 2.28571 18.2857H11.4286C11.5833 18.2857 11.7173 18.2292 11.8304 18.1161C11.9435 18.003 12 17.8691 12 17.7143ZM8.28572 2.85714C8.47619 2.85714 8.57143 2.76191 8.57143 2.57143C8.57143 2.38095 8.47619 2.28572 8.28572 2.28572H5.42857C5.2381 2.28572 5.14286 2.38095 5.14286 2.57143C5.14286 2.76191 5.2381 2.85714 5.42857 2.85714H8.28572ZM13.7143 2.28572V20.5714C13.7143 21.1905 13.4881 21.7262 13.0357 22.1786C12.5833 22.631 12.0476 22.8571 11.4286 22.8571H2.28571C1.66666 22.8571 1.13095 22.631 0.678572 22.1786C0.226188 21.7262 0 21.1905 0 20.5714V2.28572C0 1.66666 0.226188 1.13096 0.678572 0.678572C1.13095 0.226188 1.66666 0 2.28571 0H11.4286C12.0476 0 12.5833 0.226188 13.0357 0.678572C13.4881 1.13096 13.7143 1.66666 13.7143 2.28572Z" fill="#00B0AE"/>
</svg>
