<svg width="19" height="19" viewBox="0 0 19 19" fill="none" xmlns="http://www.w3.org/2000/svg">
<path fill-rule="evenodd" clip-rule="evenodd" d="M11.5337 11.5445C12.4856 10.5925 12.9615 9.44953 12.9615 8.11539C12.9615 6.78124 12.4874 5.64003 11.5391 4.69171C10.5907 3.74338 9.44953 3.26923 8.11539 3.26923C6.78124 3.26923 5.64003 3.74338 4.69171 4.69171C3.74339 5.64003 3.26923 6.78124 3.26923 8.11539C3.26923 9.44953 3.74339 10.5907 4.69171 11.5391C5.64003 12.4874 6.78124 12.9615 8.11539 12.9615C9.44953 12.9615 10.5889 12.4892 11.5337 11.5445ZM18.5 17.1154C18.5 17.4904 18.363 17.8149 18.0889 18.0889C17.8149 18.363 17.4904 18.5 17.1154 18.5C16.726 18.5 16.4014 18.363 16.1418 18.0889L12.4315 14.3894C11.1406 15.2837 9.70193 15.7308 8.11538 15.7308C7.08413 15.7308 6.09796 15.5307 5.15685 15.1304C4.21574 14.7302 3.40445 14.1893 2.72296 13.5078C2.04146 12.8263 1.5006 12.015 1.10036 11.0739C0.700118 10.1328 0.5 9.14664 0.5 8.11538C0.5 7.08413 0.700118 6.09796 1.10036 5.15685C1.5006 4.21574 2.04146 3.40445 2.72296 2.72296C3.40445 2.04146 4.21574 1.5006 5.15685 1.10036C6.09796 0.700117 7.08413 0.5 8.11538 0.5C9.14664 0.5 10.1328 0.700117 11.0739 1.10036C12.015 1.5006 12.8263 2.04146 13.5078 2.72296C14.1893 3.40445 14.7302 4.21574 15.1304 5.15685C15.5307 6.09796 15.7308 7.08413 15.7308 8.11538C15.7308 9.70193 15.2837 11.1406 14.3894 12.4315L18.0998 16.1418C18.3666 16.4087 18.5 16.7332 18.5 17.1154Z" fill="#00B0AE"/>
</svg>
