<svg width="30" height="30" viewBox="0 0 30 30" fill="none" xmlns="http://www.w3.org/2000/svg">
<path fill-rule="evenodd" clip-rule="evenodd" d="M25.6055 25.6055C22.7754 28.4414 19.0078 30 15 30C10.9922 30 7.22461 28.4414 4.39453 25.6055C1.55859 22.7754 0 19.0078 0 15C0 10.9922 1.55859 7.23047 4.39453 4.39453C7.22461 1.55859 10.9922 0 15 0C19.0078 0 22.7754 1.55859 25.6055 4.39453C28.4414 7.22461 30 10.9922 30 15C30 19.0078 28.4414 22.7754 25.6055 25.6055ZM24.3633 5.63672C21.8613 3.13477 18.5391 1.75781 15 1.75781C11.4609 1.75781 8.13867 3.13477 5.63672 5.63672C3.13477 8.13867 1.75781 11.4609 1.75781 15C1.75781 18.5391 3.13477 21.8613 5.63672 24.3633C8.13867 26.8652 11.4609 28.2422 15 28.2422C18.5391 28.2422 21.8613 26.8652 24.3633 24.3633C26.8652 21.8613 28.2422 18.5391 28.2422 15C28.2422 11.4609 26.8652 8.13867 24.3633 5.63672ZM14.1211 5.85924V3.51538H15.8789V5.85924H14.1211ZM9.16406 7.92194L7.50586 6.26367L6.26367 7.50591L7.92188 9.16417L9.16406 7.92194ZM3.52148 14.1212H5.86523V15.8789H3.52148V14.1212ZM9.16406 22.0839L7.92188 20.8418L6.26367 22.4999L7.50586 23.7421L9.16406 22.0839ZM14.1211 26.4784V24.1348H15.8789V26.4784H14.1211ZM23.7422 22.4941L22.084 20.8358L20.8418 22.078L22.5 23.7363L23.7422 22.4941ZM24.1406 14.1212H26.4844V15.8789H24.1406V14.1212ZM23.7422 7.5L22.5 6.25781L20.8418 7.91601L22.084 9.1582L23.7422 7.5ZM15.8789 15.8789H8.79492V14.1211H14.1211V8.79504H15.8789V15.8789Z" fill="white"/>
</svg>
