<svg width="17" height="17" viewBox="0 0 17 17" fill="none" xmlns="http://www.w3.org/2000/svg">
<path fill-rule="evenodd" clip-rule="evenodd" d="M2.47418 2.51408C4.15024 0.838021 6.15883 0 8.5 0C10.8412 0 12.8431 0.83137 14.5059 2.49413C16.1686 4.15689 17 6.15883 17 8.5C17 10.8412 16.1686 12.8431 14.5059 14.5059C12.8431 16.1686 10.8412 17 8.5 17C6.15883 17 4.15689 16.1686 2.49413 14.5059C0.831369 12.8431 0 10.8412 0 8.5C0 6.15883 0.824718 4.16355 2.47418 2.51408ZM3.67136 13.2887C5.00157 14.6189 6.6111 15.284 8.5 15.284C10.3889 15.284 11.9918 14.6189 13.3087 13.2887C14.6256 11.9585 15.284 10.3623 15.284 8.5C15.284 6.63771 14.6256 5.04148 13.3087 3.71127C11.9918 2.38106 10.3889 1.71596 8.5 1.71596C6.6111 1.71596 5.00822 2.38106 3.69131 3.71127C2.37441 5.04148 1.71596 6.63771 1.71596 8.5C1.71596 10.3623 2.36776 11.9585 3.67136 13.2887ZM8.93897 4.26995V8.69953L12.77 10.9742L12.1315 12.0117L7.66197 9.33803V4.26995H8.93897Z" fill="#00B2BD"/>
</svg>
