<svg width="20" height="20" viewBox="0 0 20 20" fill="none" xmlns="http://www.w3.org/2000/svg">
<path fill-rule="evenodd" clip-rule="evenodd" d="M20 3.8785L18.6916 5.42056L14.1121 1.58878L15.4206 0.046729L20 3.8785ZM5.84112 1.54206L1.30841 5.42056L0 3.8785L4.53271 0L5.84112 1.54206ZM10.514 6.1215V11.3084L14.486 13.6449L13.7383 14.9065L9.01869 12.0561V6.1215H10.514ZM3.59813 4.76635C5.37384 3.0218 7.50778 2.14953 10 2.14953C12.4922 2.14953 14.6184 3.0218 16.3785 4.76635C18.1386 6.51091 19.0187 8.61369 19.0187 11.0748C19.0187 13.5358 18.1386 15.6386 16.3785 17.3832C14.6184 19.1277 12.4922 20 10 20C7.50778 20 5.38163 19.1277 3.6215 17.3832C1.86136 15.6386 0.981308 13.5358 0.981308 11.0748C0.981308 8.61369 1.85357 6.51091 3.59813 4.76635ZM5.04673 15.9813C6.41745 17.352 8.06852 18.0374 10 18.0374C11.9315 18.0374 13.5825 17.3598 14.9533 16.0047C16.324 14.6495 17.0093 13.0062 17.0093 11.0748C17.0093 9.17444 16.324 7.53895 14.9533 6.16822C13.5825 4.7975 11.9315 4.11215 10 4.11215C8.06852 4.11215 6.41745 4.7975 5.04673 6.16822C3.676 7.53895 2.99065 9.17444 2.99065 11.0748C2.99065 12.9751 3.676 14.6106 5.04673 15.9813Z" fill="#00B0AE"/>
</svg>
