<svg width="30" height="30" viewBox="0 0 30 30" fill="none" xmlns="http://www.w3.org/2000/svg">
<path fill-rule="evenodd" clip-rule="evenodd" d="M24.537 5.1738C22.0608 2.6976 18.6396 1.1679 14.8557 1.1679C11.0712 1.1679 7.65 2.6976 5.1738 5.1738C2.6901 7.6497 1.1598 11.0799 1.1598 14.8635C1.1598 18.639 2.6901 22.0692 5.1738 24.5451C7.65 27.0207 11.0712 28.5591 14.8557 28.5591C18.6396 28.5591 22.0608 27.0207 24.537 24.5451C27.021 22.0692 28.551 18.639 28.551 14.8635C28.551 11.0799 27.021 7.6497 24.537 5.1738ZM14.8557 0C18.96 0 22.6698 1.6695 25.3596 4.3512C28.0494 7.041 29.7108 10.7589 29.7108 14.8635C29.7108 18.9597 28.0494 22.6779 25.3596 25.3674C22.6698 28.0491 18.96 29.7189 14.8557 29.7189C10.7508 29.7189 7.0413 28.0491 4.3518 25.3674C1.6614 22.6779 0 18.9597 0 14.8635C0 10.7589 1.6614 7.041 4.3518 4.3512C7.0413 1.6695 10.7508 0 14.8557 0Z" fill="#00B0AE"/>
<path fill-rule="evenodd" clip-rule="evenodd" d="M22.4394 10.2324C21.888 10.4712 21.288 10.6356 20.6547 10.7178C21.3042 10.3314 21.7974 9.73887 22.0284 9.01497C21.4278 9.36867 20.7534 9.62367 20.046 9.76347C19.4859 9.16317 18.6723 8.79297 17.7675 8.79297C16.0566 8.79297 14.658 10.1667 14.658 11.8527C14.658 12.0996 14.6994 12.33 14.7486 12.5523C12.1578 12.4287 9.8625 11.2113 8.3325 9.35217C8.0694 9.81297 7.905 10.3314 7.905 10.8906C7.905 11.9598 8.4642 12.8976 9.2865 13.4406C8.7768 13.4322 8.2995 13.2924 7.8804 13.062C7.8804 13.0785 7.8804 13.0869 7.8804 13.1031C7.8804 13.4979 7.9545 13.86 8.094 14.2053C8.4726 15.168 9.3363 15.8916 10.3812 16.0974C10.1091 16.1715 9.846 16.2123 9.5583 16.2123C9.3609 16.2123 9.1635 16.1877 8.9739 16.1466C9.3774 17.364 10.5204 18.2523 11.8782 18.2853C10.8084 19.1079 9.4761 19.5933 8.0202 19.5933C7.7649 19.5933 7.5267 19.5765 7.2717 19.5519C8.6535 20.4159 10.2903 20.9256 12.0426 20.9256C16.9038 20.9256 19.9062 17.5614 20.6871 14.0655C20.8275 13.4406 20.8929 12.8235 20.8929 12.2148C20.8929 12.0831 20.8929 11.9436 20.8929 11.82C21.4935 11.3841 22.0284 10.8411 22.4394 10.2324Z" fill="#00B0AE"/>
</svg>
