<svg width="18" height="18" viewBox="0 0 18 18" fill="none" xmlns="http://www.w3.org/2000/svg">
<path fill-rule="evenodd" clip-rule="evenodd" d="M13.058 3.77679C13.2188 4.125 13.2589 4.32589 13.1786 4.37946C13.125 4.43303 13.0379 4.44643 12.9174 4.41964C12.7969 4.39286 12.7098 4.3125 12.6562 4.17857C12.6295 4.09821 12.6161 4.01786 12.6161 3.9375L12.5759 3.81696H12.4554C12.2946 3.87053 12.2143 3.81696 12.2143 3.65625C12.2411 3.60268 12.308 3.54911 12.4152 3.49554C12.4152 3.46875 12.4018 3.44197 12.375 3.41518C12.3482 3.25446 12.3884 3.1875 12.4955 3.21429C12.7098 3.26786 12.8973 3.45535 13.058 3.77679ZM2.61161 2.65179C4.37947 0.883921 6.50892 0 9 0C11.4911 0 13.6138 0.877222 15.3683 2.6317C17.1228 4.38617 18 6.50892 18 9C18 11.4911 17.1228 13.6138 15.3683 15.3683C13.6138 17.1228 11.4911 18 9 18C6.50892 18 4.38617 17.1228 2.6317 15.3683C0.877223 13.6138 0 11.4911 0 9C0 6.50892 0.870527 4.39287 2.61161 2.65179ZM5.66518 15.9509L5.98661 16.1116C6.14732 16.1652 6.28125 16.2054 6.38839 16.2321C6.89732 16.4196 7.47321 16.5536 8.11607 16.6339C9.32143 16.7679 10.433 16.6607 11.4509 16.3125C12.1741 16.0714 12.75 15.8036 13.1786 15.5089C13.2589 15.4554 13.3393 15.2946 13.4196 15.0268C13.5 14.7589 13.5536 14.5982 13.5804 14.5446C13.6607 14.3839 13.7076 14.0826 13.721 13.6406C13.7344 13.1987 13.8482 12.8705 14.0625 12.6562C14.1964 12.4955 14.2768 12.3482 14.3036 12.2143C14.3304 12.0804 14.3237 11.9263 14.2835 11.7522C14.2433 11.5781 14.2232 11.4241 14.2232 11.2902C14.2232 11.2098 14.2634 11.0357 14.3438 10.7679C14.4241 10.5 14.4375 10.2857 14.3839 10.125C14.3839 10.0714 14.3304 10.0647 14.2232 10.1049C14.1161 10.1451 14.0491 10.1384 14.0223 10.0848C13.9688 10.0045 13.8683 9.95759 13.721 9.9442C13.5737 9.9308 13.4129 9.9375 13.2388 9.96429C13.0647 9.99107 12.9509 10.0045 12.8973 10.0045C12.5759 9.95089 12.1339 9.64286 11.5714 9.08036C11.4911 9 11.5045 8.65179 11.6116 8.03571C11.6384 7.95536 11.6652 7.76786 11.692 7.47321C11.7188 7.17857 11.779 6.95759 11.8728 6.81027C11.9665 6.66295 12.1339 6.5625 12.375 6.50893C12.4554 6.48214 12.529 6.40848 12.596 6.28794C12.6629 6.16741 12.7232 6.09375 12.7768 6.06696C12.8571 6.04018 12.9576 6.01339 13.0781 5.98661C13.1987 5.95982 13.2991 5.93304 13.3795 5.90625C13.5134 5.87946 13.6942 5.88616 13.9219 5.92634C14.1496 5.96652 14.317 5.98661 14.4241 5.98661C14.6116 5.98661 14.9062 6.13393 15.308 6.42857C15.3884 6.50893 15.4754 6.5558 15.5692 6.5692C15.6629 6.58259 15.7701 6.58929 15.8906 6.58929C16.0112 6.58929 16.1116 6.60268 16.192 6.62946C16.2991 6.60268 16.2723 6.49554 16.1116 6.30804C16.0312 6.25447 15.9241 6.22768 15.7902 6.22768C15.5491 6.17411 15.2813 5.97991 14.9866 5.64509C14.692 5.31027 14.4777 5.10268 14.3438 5.02232C14.1562 4.91518 14.0089 4.91518 13.9018 5.02232L13.942 5.50446C13.942 5.53125 13.7679 5.59821 13.4196 5.70536C13.1786 5.75893 12.9509 5.625 12.7366 5.30357C12.6027 5.0625 12.6295 4.90179 12.817 4.82143H12.9375C12.9911 4.79464 13.0446 4.77455 13.0982 4.76116C13.1518 4.74777 13.2188 4.72768 13.2991 4.70089C13.3795 4.67411 13.4464 4.64732 13.5 4.62054C13.5536 4.59375 13.6071 4.56027 13.6607 4.52009C13.7143 4.47991 13.7545 4.43303 13.7812 4.37946C13.808 4.32589 13.808 4.27232 13.7812 4.21875C13.7545 4.16518 13.7411 4.07143 13.7411 3.9375C13.7143 3.77679 13.6607 3.68304 13.5804 3.65625C13.4732 3.62946 13.3728 3.57589 13.279 3.49554C13.1853 3.41518 13.0848 3.36161 12.9777 3.33482C12.8437 3.30803 12.7768 3.12054 12.7768 2.77232C12.7768 2.58482 12.8437 2.49107 12.9777 2.49107C13.0312 2.49107 13.0848 2.49107 13.1384 2.49107C12.4687 2.0625 11.7054 1.74107 10.8482 1.52679C10.7411 1.84822 10.6339 2.00893 10.5268 2.00893C10.3393 2.0625 10.2187 2.10268 10.1652 2.12946C10.1116 2.18303 10.0446 2.27009 9.96429 2.39063C9.88393 2.51116 9.81696 2.59822 9.76339 2.65179C9.70982 2.70536 9.64955 2.75223 9.58259 2.79241C9.51562 2.83259 9.44866 2.8192 9.3817 2.75223C9.31473 2.68527 9.24107 2.57143 9.16071 2.41071C9.10714 2.25 9.11384 2.04911 9.1808 1.80804C9.24777 1.56696 9.26786 1.39286 9.24107 1.28571H9H8.87946C9.06697 1.66072 8.95982 1.91518 8.55804 2.04911C8.45089 2.04911 8.33705 2.01562 8.21652 1.94866C8.09598 1.8817 7.98214 1.86161 7.875 1.88839C7.82143 1.88839 7.74777 1.8683 7.65402 1.82813C7.56027 1.78795 7.48661 1.78125 7.43304 1.80804C7.08482 1.96875 6.89732 2.12946 6.87054 2.29018C6.81697 2.53125 6.85714 2.67187 6.99107 2.71205C7.125 2.75223 7.27232 2.69196 7.43304 2.53125C7.80804 2.15625 8.14286 2.07589 8.4375 2.29018C8.57143 2.39732 8.63839 2.58482 8.63839 2.85268C8.63839 2.95982 8.6317 3.05357 8.6183 3.13393C8.60491 3.21429 8.57143 3.30134 8.51786 3.39509C8.46429 3.48884 8.38393 3.52232 8.27679 3.49554C8.25 3.49554 8.20312 3.47545 8.13616 3.43527C8.0692 3.39509 8.02232 3.3683 7.99554 3.35491C7.96875 3.34152 7.91518 3.34821 7.83482 3.375C7.78125 3.42857 7.39286 3.54911 6.66964 3.73661C6.50893 3.76339 6.31473 3.82366 6.08705 3.91741C5.85937 4.01116 5.71875 4.07143 5.66518 4.09821C5.37053 4.20536 5.20982 4.36607 5.18304 4.58036C5.18304 4.95536 5.14286 5.15625 5.0625 5.18304C5.00893 5.20982 4.94866 5.14955 4.8817 5.00223C4.81473 4.85491 4.72098 4.70759 4.60044 4.56027C4.47991 4.41295 4.33929 4.35268 4.17857 4.37946C3.91071 4.40625 3.65625 4.53348 3.41518 4.76116C3.17411 4.98884 3.09375 5.23661 3.17411 5.50446C3.20089 5.55803 3.30134 5.60491 3.47545 5.64509C3.64955 5.68527 3.7567 5.72544 3.79687 5.76563C3.83705 5.8058 3.76339 5.90625 3.57589 6.06696C3.54911 6.12053 3.54241 6.1875 3.5558 6.26786C3.5692 6.34821 3.58928 6.46205 3.61607 6.60937C3.64286 6.7567 3.65625 6.84375 3.65625 6.87054C3.68304 7.05804 3.79018 7.20536 3.97768 7.3125C4.16518 7.41964 4.33929 7.40625 4.5 7.27232C4.63393 7.13839 4.82143 7.11161 5.0625 7.19196C6.10715 7.75447 6.70982 8.11607 6.87054 8.27679C6.92411 8.33036 7.02455 8.51785 7.17187 8.83929C7.3192 9.16072 7.44643 9.34822 7.55357 9.40179C7.58036 9.42857 7.73437 9.49553 8.01563 9.60268C8.29688 9.70982 8.49107 9.83036 8.59821 9.96429C8.70536 10.125 8.71205 10.2924 8.6183 10.4665C8.52455 10.6406 8.41072 10.7812 8.27679 10.8884C8.22322 10.9152 8.11607 11.1027 7.95536 11.4509C7.79464 11.7991 7.6875 12 7.63393 12.0536C7.58036 12.1339 7.36607 12.2277 6.99107 12.3348C6.96428 12.3348 6.92411 12.3683 6.87054 12.4353C6.81697 12.5022 6.77009 12.5692 6.72991 12.6362C6.68973 12.7031 6.65625 12.75 6.62946 12.7768C6.57589 12.8304 6.48214 12.9509 6.34821 13.1384C6.21428 13.3259 6.08036 13.4598 5.94643 13.5402C5.33035 13.9688 5.08928 14.558 5.22321 15.308C5.30357 15.6295 5.45089 15.8437 5.66518 15.9509ZM4.01786 14.8661L4.09821 14.9464C4.28572 15.1071 4.59375 15.3214 5.02232 15.5893C4.35268 14.9196 4.07143 13.875 4.17857 12.4554L4.29911 11.4911C4.32589 11.4375 4.3058 11.3638 4.23884 11.2701C4.17188 11.1763 4.13839 11.1027 4.13839 11.0491C4.13839 10.8616 4.08482 10.7411 3.97768 10.6875C3.92411 10.6339 3.87053 10.5804 3.81696 10.5268C3.57589 10.2857 3.41518 10.058 3.33482 9.84375C3.12053 9.38839 3.25446 8.8125 3.73661 8.11607C3.87054 7.90178 3.84375 7.64732 3.65625 7.35268C3.46875 7.05803 3.36161 6.88393 3.33482 6.83036C3.33482 6.75 3.28795 6.66964 3.1942 6.58929C3.10045 6.50893 3.06696 6.42857 3.09375 6.34821C3.12054 6.21428 3.06697 6.13393 2.93304 6.10714C2.85268 6.05357 2.78571 6.01339 2.73214 5.98661C2.54464 5.87946 2.46429 5.69866 2.49107 5.4442C2.51786 5.18973 2.50446 5.02232 2.45089 4.94196C1.59375 6.36161 1.22545 7.90178 1.34598 9.5625C1.46652 11.2232 2.0491 12.683 3.09375 13.942L3.13393 13.9821V14.0223H3.17411C3.33482 14.2366 3.45536 14.3839 3.53571 14.4643C3.58928 14.5179 3.66295 14.5848 3.7567 14.6652C3.85045 14.7455 3.91071 14.7991 3.9375 14.8259L4.01786 14.8661Z" fill="#00B0AE"/>
</svg>
