<svg width="30" height="30" viewBox="0 0 30 30" fill="none" xmlns="http://www.w3.org/2000/svg">
<path fill-rule="evenodd" clip-rule="evenodd" d="M24.537 5.1738C22.0608 2.6898 18.6396 1.1598 14.8557 1.1598C11.0712 1.1598 7.65 2.6898 5.1738 5.1738C2.6901 7.6497 1.1598 11.0715 1.1598 14.8551C1.1598 18.639 2.6901 22.0611 5.1738 24.5367C7.65 27.021 11.0712 28.5507 14.8557 28.5507C18.6396 28.5507 22.0608 27.021 24.537 24.5367C27.021 22.0611 28.551 18.639 28.551 14.8551C28.551 11.0715 27.021 7.6497 24.537 5.1738ZM14.8557 0C18.96 0 22.6698 1.6614 25.3596 4.3512C28.0494 7.041 29.7108 10.7508 29.7108 14.8551C29.7108 18.9597 28.0494 22.6695 25.3596 25.3593C22.6698 28.0491 18.96 29.7108 14.8557 29.7108C10.7508 29.7108 7.0413 28.0491 4.3518 25.3593C1.6614 22.6695 0 18.9597 0 14.8551C0 10.7508 1.6614 7.041 4.3518 4.3512C7.0413 1.6614 10.7508 0 14.8557 0Z" fill="#00B0AE"/>
<path fill-rule="evenodd" clip-rule="evenodd" d="M17.3408 14.3259L13.8225 12.6738C13.6797 12.5922 13.5522 12.5871 13.44 12.6585C13.3279 12.7299 13.2718 12.8574 13.2718 13.0409V16.1309C13.2718 16.2941 13.3279 16.4114 13.44 16.4828C13.5522 16.5542 13.6797 16.5491 13.8225 16.4675L17.3408 14.846C17.504 14.7644 17.5855 14.6726 17.5855 14.5706C17.5855 14.4687 17.504 14.3871 17.3408 14.3259ZM14.8321 20.6894C10.9772 20.6894 8.70817 20.3478 8.0249 19.6645C7.34163 18.9813 7 17.2833 7 14.5706C7 11.858 7.34163 10.1651 8.0249 9.49203C8.70817 8.81895 10.9772 8.48242 14.8321 8.48242C18.6869 8.48242 20.956 8.81895 21.6392 9.49203C22.3225 10.1651 22.6641 11.858 22.6641 14.5706C22.6641 17.2833 22.3225 18.9813 21.6392 19.6645C20.956 20.3478 18.6869 20.6894 14.8321 20.6894Z" fill="#00B0AE"/>
</svg>
