<svg width="15" height="21" viewBox="0 0 15 21" fill="none" xmlns="http://www.w3.org/2000/svg">
<path fill-rule="evenodd" clip-rule="evenodd" d="M12.8104 2.14437C11.3507 0.714781 9.58055 0 7.5 0C5.41945 0 3.64934 0.714781 2.1896 2.14437C0.729858 3.57395 0 5.3075 0 7.34507C0 8.36385 0.268454 9.54694 0.805369 10.8944C1.34228 12.2418 1.93792 13.4495 2.59228 14.5176C3.24665 15.5857 4.01006 16.6866 4.88255 17.8204C5.75504 18.9542 6.35906 19.7101 6.69463 20.088C7.0302 20.466 7.29866 20.77 7.5 21L8.30537 20.162C8.80873 19.5704 9.42114 18.7735 10.1426 17.7711C10.8641 16.7688 11.594 15.6925 12.3322 14.5423C13.0705 13.392 13.6997 12.1596 14.2198 10.8451C14.7399 9.53051 15 8.36385 15 7.34507C15 5.3075 14.2701 3.57395 12.8104 2.14437ZM11.4951 7.50512C11.4951 9.5776 9.77962 11.2577 7.66342 11.2577C5.54723 11.2577 3.83171 9.5776 3.83171 7.50512C3.83171 5.43264 5.54723 3.75256 7.66342 3.75256C9.77962 3.75256 11.4951 5.43264 11.4951 7.50512Z" fill="#FF6142"/>
</svg>
