<svg width="20" height="21" viewBox="0 0 20 21" fill="none" xmlns="http://www.w3.org/2000/svg">
<path fill-rule="evenodd" clip-rule="evenodd" d="M8.2572 11.1508C7.69812 10.1824 7.24631 9.23945 6.90175 8.32187C6.55719 7.40429 6.60089 6.81552 7.03286 6.55554C7.66784 6.18894 8.1609 5.80108 8.51206 5.39197C8.86322 4.98286 8.74822 4.11003 8.16703 2.77345C7.57334 1.43352 6.90457 0.912149 6.16071 1.20933C5.41685 1.50651 4.73706 1.82755 4.1213 2.17247C3.77206 2.37411 3.51274 2.79105 3.34333 3.4233C3.17392 4.05555 3.13562 4.83699 3.22844 5.76762C3.32125 6.69826 3.56211 7.75242 3.95103 8.93013C4.33995 10.1078 4.91017 11.3475 5.66172 12.6493C6.41326 13.951 7.2026 15.0615 8.02975 15.9809C8.85689 16.9003 9.65022 17.6329 10.4098 18.1786C11.1693 18.7243 11.8621 19.081 12.4881 19.2487C13.1141 19.4164 13.6079 19.4012 13.9697 19.2029C14.5729 18.8546 15.1892 18.4327 15.8185 17.9371C16.4478 17.4415 16.3306 16.6016 15.4671 15.4175C14.6001 14.2459 13.9018 13.7099 13.3719 13.8094C12.842 13.909 12.2613 14.1358 11.6296 14.4899C11.1851 14.7465 10.6517 14.4962 10.0294 13.739C9.40699 12.9819 8.81627 12.1191 8.2572 11.1508Z" fill="#FF6142"/>
</svg>
